<svg width="17" height="17" viewBox="0 0 17 17" fill="none" xmlns="http://www.w3.org/2000/svg">
<path d="M1.90094 11.5H10.0991C10.1517 11.5 10.2039 11.4897 10.2525 11.4696C10.3012 11.4494 10.3454 11.4199 10.3827 11.3827C10.4199 11.3454 10.4494 11.3012 10.4696 11.2525C10.4897 11.2039 10.5 11.1517 10.5 11.0991V9.90094C10.5 9.84827 10.4897 9.79612 10.4696 9.74746C10.4494 9.69879 10.4199 9.65458 10.3827 9.61734C10.3454 9.5801 10.3012 9.55057 10.2525 9.53044C10.2039 9.5103 10.1517 9.49996 10.0991 9.5H1.90094C1.84827 9.49996 1.79612 9.5103 1.74746 9.53044C1.69879 9.55057 1.65458 9.5801 1.61734 9.61734C1.5801 9.65458 1.55057 9.69879 1.53044 9.74746C1.5103 9.79612 1.49996 9.84827 1.5 9.90094V11.0991C1.49996 11.1517 1.5103 11.2039 1.53044 11.2525C1.55057 11.3012 1.5801 11.3454 1.61734 11.3827C1.65458 11.4199 1.69879 11.4494 1.74746 11.4696C1.79612 11.4897 1.84827 11.5 1.90094 11.5ZM1.90094 3.5H10.0991C10.1517 3.50004 10.2039 3.4897 10.2525 3.46956C10.3012 3.44943 10.3454 3.4199 10.3827 3.38266C10.4199 3.34542 10.4494 3.30121 10.4696 3.25254C10.4897 3.20388 10.5 3.15173 10.5 3.09906V1.90094C10.5 1.84827 10.4897 1.79612 10.4696 1.74746C10.4494 1.69879 10.4199 1.65458 10.3827 1.61734C10.3454 1.5801 10.3012 1.55057 10.2525 1.53044C10.2039 1.5103 10.1517 1.49996 10.0991 1.5H1.90094C1.84827 1.49996 1.79612 1.5103 1.74746 1.53044C1.69879 1.55057 1.65458 1.5801 1.61734 1.61734C1.5801 1.65458 1.55057 1.69879 1.53044 1.74746C1.5103 1.79612 1.49996 1.84827 1.5 1.90094V3.09906C1.49996 3.15173 1.5103 3.20388 1.53044 3.25254C1.55057 3.30121 1.5801 3.34542 1.61734 3.38266C1.65458 3.4199 1.69879 3.44943 1.74746 3.46956C1.79612 3.4897 1.84827 3.50004 1.90094 3.5ZM15 5.5H2C1.86739 5.5 1.74021 5.55268 1.64645 5.64645C1.55268 5.74021 1.5 5.86739 1.5 6V7C1.5 7.13261 1.55268 7.25979 1.64645 7.35355C1.74021 7.44732 1.86739 7.5 2 7.5H15C15.1326 7.5 15.2598 7.44732 15.3536 7.35355C15.4473 7.25979 15.5 7.13261 15.5 7V6C15.5 5.86739 15.4473 5.74021 15.3536 5.64645C15.2598 5.55268 15.1326 5.5 15 5.5ZM15 13.5H2C1.86739 13.5 1.74021 13.5527 1.64645 13.6464C1.55268 13.7402 1.5 13.8674 1.5 14V15C1.5 15.1326 1.55268 15.2598 1.64645 15.3536C1.74021 15.4473 1.86739 15.5 2 15.5H15C15.1326 15.5 15.2598 15.4473 15.3536 15.3536C15.4473 15.2598 15.5 15.1326 15.5 15V14C15.5 13.8674 15.4473 13.7402 15.3536 13.6464C15.2598 13.5527 15.1326 13.5 15 13.5Z" fill="url(#paint0_linear_381_1606)"/>
<defs>
<linearGradient id="paint0_linear_381_1606" x1="-3.07778" y1="6.17961" x2="9.04297" y2="23.8455" gradientUnits="userSpaceOnUse">
<stop stop-color="#BCE411"/>
<stop offset="1" stop-color="#61AB01"/>
</linearGradient>
</defs>
</svg>
