<svg width="14" height="14" viewBox="0 0 14 14" fill="none" xmlns="http://www.w3.org/2000/svg">
<path d="M13.9954 6.5851C13.7873 3.19125 11.1084 0.391417 7.71423 0.0344044C5.60037 -0.173795 3.547 0.570609 2.05871 2.0594C0.570415 3.5482 -0.173732 5.60214 0.0343913 7.71682C0.362292 11.0225 3.01098 13.6416 6.31559 13.9698C6.55395 14 6.79232 14 7.02949 14C8.42825 14 9.73867 13.6127 10.8991 12.809C11.1967 12.6008 11.2863 12.1832 11.0781 11.8854C10.87 11.5877 10.4526 11.4981 10.1549 11.7063C9.0538 12.4507 7.77363 12.7485 6.46453 12.6298C3.7856 12.3623 1.67162 10.2478 1.40432 7.56794C1.22526 5.87096 1.82057 4.20297 3.04145 2.98305C4.26233 1.76176 5.89945 1.1965 7.6248 1.34538C10.363 1.6129 12.5362 3.87633 12.685 6.64579C12.7152 7.39018 12.6257 8.13458 12.3873 8.81966C12.2083 9.32562 11.7327 9.68269 11.1665 9.68269C10.4526 9.68269 9.88629 9.11742 9.88629 8.40209L9.88745 4.20309C9.88745 3.84602 9.5898 3.51801 9.2026 3.51801C8.81541 3.51801 8.51775 3.81576 8.51775 4.20309V4.41129C7.98172 4.02396 7.35736 3.81577 6.64226 3.81577C4.88655 3.78553 3.42844 5.24525 3.42844 7.00149C3.42844 8.75774 4.85744 10.2176 6.64345 10.2176C7.44689 10.2176 8.16199 9.91983 8.72706 9.44294C9.14331 10.3665 10.0665 11.0504 11.1386 11.0504C12.2699 11.0504 13.2524 10.3362 13.6384 9.29406C13.9059 8.40078 14.0257 7.50747 13.9954 6.5851ZM6.64355 8.87761C5.60174 8.87761 4.76806 8.04364 4.76806 7.00149C4.76806 5.95933 5.60174 5.12537 6.64355 5.12537C7.68536 5.12537 8.51904 5.95933 8.51904 7.00149C8.51904 8.04364 7.65514 8.87761 6.64355 8.87761Z" fill="#908E8E"/>
</svg>
