<svg width="16" height="16" viewBox="0 0 16 16" fill="none" xmlns="http://www.w3.org/2000/svg">
<path d="M14.9954 7.5851C14.7873 4.19125 12.1084 1.39142 8.71423 1.0344C6.60037 0.826205 4.547 1.57061 3.05871 3.0594C1.57041 4.5482 0.826268 6.60214 1.03439 8.71682C1.36229 12.0225 4.01098 14.6416 7.31559 14.9698C7.55395 15 7.79232 15 8.02949 15C9.42825 15 10.7387 14.6127 11.8991 13.809C12.1967 13.6008 12.2863 13.1832 12.0781 12.8854C11.87 12.5877 11.4526 12.4981 11.1549 12.7063C10.0538 13.4507 8.77363 13.7485 7.46453 13.6298C4.7856 13.3623 2.67162 11.2478 2.40432 8.56794C2.22526 6.87096 2.82057 5.20297 4.04145 3.98305C5.26233 2.76176 6.89945 2.1965 8.6248 2.34538C11.363 2.6129 13.5362 4.87633 13.685 7.64579C13.7152 8.39018 13.6257 9.13458 13.3873 9.81966C13.2083 10.3256 12.7327 10.6827 12.1665 10.6827C11.4526 10.6827 10.8863 10.1174 10.8863 9.40209L10.8875 5.20309C10.8875 4.84602 10.5898 4.51801 10.2026 4.51801C9.81541 4.51801 9.51775 4.81576 9.51775 5.20309V5.41129C8.98172 5.02396 8.35736 4.81577 7.64226 4.81577C5.88655 4.78553 4.42844 6.24525 4.42844 8.00149C4.42844 9.75774 5.85744 11.2176 7.64345 11.2176C8.44689 11.2176 9.16199 10.9198 9.72706 10.4429C10.1433 11.3665 11.0665 12.0504 12.1386 12.0504C13.2699 12.0504 14.2524 11.3362 14.6384 10.2941C14.9059 9.40078 15.0257 8.50747 14.9954 7.5851ZM7.64355 9.87761C6.60174 9.87761 5.76806 9.04364 5.76806 8.00149C5.76806 6.95933 6.60174 6.12537 7.64355 6.12537C8.68536 6.12537 9.51904 6.95933 9.51904 8.00149C9.51904 9.04364 8.65514 9.87761 7.64355 9.87761Z" fill="#77B724"/>
</svg>
