<svg width="22" height="24" viewBox="0 0 22 24" fill="none" xmlns="http://www.w3.org/2000/svg">
<path d="M11 24C12.7345 24 14.1414 22.657 14.1414 21H7.85863C7.85863 22.657 9.26554 24 11 24ZM21.5772 16.9823C20.6284 16.0092 18.8532 14.5453 18.8532 9.75C18.8532 6.10781 16.1778 3.19219 12.5704 2.47688V1.5C12.5704 0.671719 11.8672 0 11 0C10.1328 0 9.42956 0.671719 9.42956 1.5V2.47688C5.82216 3.19219 3.14681 6.10781 3.14681 9.75C3.14681 14.5453 1.37159 16.0092 0.422845 16.9823C0.128203 17.2847 -0.0024214 17.6461 3.3952e-05 18C0.00543572 18.7687 0.637443 19.5 1.57637 19.5H20.4236C21.3626 19.5 21.9951 18.7687 22 18C22.0024 17.6461 21.8718 17.2842 21.5772 16.9823Z" fill="white"/>
</svg>
