<svg width="19" height="14" viewBox="0 0 19 14" fill="none" xmlns="http://www.w3.org/2000/svg">
<path d="M3.08301 5.94562C4.09421 5.94562 4.91634 5.10671 4.91634 4.07487C4.91634 3.04304 4.09421 2.20412 3.08301 2.20412C2.07181 2.20412 1.24967 3.04304 1.24967 4.07487C1.24967 5.10671 2.07181 5.94562 3.08301 5.94562ZM15.9163 5.94562C16.9275 5.94562 17.7497 5.10671 17.7497 4.07487C17.7497 3.04304 16.9275 2.20412 15.9163 2.20412C14.9051 2.20412 14.083 3.04304 14.083 4.07487C14.083 5.10671 14.9051 5.94562 15.9163 5.94562ZM16.833 6.88099H14.9997C14.4955 6.88099 14.04 7.08853 13.7077 7.42468C14.8622 8.07067 15.6814 9.23697 15.859 10.6225H17.7497C18.2567 10.6225 18.6663 10.2045 18.6663 9.68712V8.75174C18.6663 7.71991 17.8442 6.88099 16.833 6.88099ZM9.49967 6.88099C11.2729 6.88099 12.708 5.41655 12.708 3.60718C12.708 1.79782 11.2729 0.333374 9.49967 0.333374C7.7265 0.333374 6.29134 1.79782 6.29134 3.60718C6.29134 5.41655 7.7265 6.88099 9.49967 6.88099ZM11.6997 7.81637H11.4619C10.8661 8.10867 10.2044 8.28405 9.49967 8.28405C8.79499 8.28405 8.13613 8.10867 7.53743 7.81637H7.29967C5.4778 7.81637 3.99967 9.32466 3.99967 11.1837V12.0256C3.99967 12.8002 4.61556 13.4286 5.37467 13.4286H13.6247C14.3838 13.4286 14.9997 12.8002 14.9997 12.0256V11.1837C14.9997 9.32466 13.5215 7.81637 11.6997 7.81637ZM5.2916 7.42468C4.95931 7.08853 4.50384 6.88099 3.99967 6.88099H2.16634C1.15514 6.88099 0.333008 7.71991 0.333008 8.75174V9.68712C0.333008 10.2045 0.742643 10.6225 1.24967 10.6225H3.13743C3.3179 9.23697 4.13717 8.07067 5.2916 7.42468Z" fill="#464242"/>
</svg>
