<svg width="17" height="17" viewBox="0 0 17 17" fill="none" xmlns="http://www.w3.org/2000/svg">
<path d="M14.5214 2.77743H8.58368C8.03722 2.77743 7.59374 2.30539 7.59374 1.72252C7.59374 1.44246 7.48983 1.17329 7.30427 0.975389C7.1187 0.777485 6.8673 0.666626 6.60473 0.666626H2.64592C1.553 0.666626 0.666992 1.61169 0.666992 2.7774V5.94407H14.5214C14.7951 5.94407 15.0159 6.18058 15.0159 6.4725C15.0159 6.76343 14.7951 6.99994 14.5214 6.99994H0.666992V13.8607C0.666992 15.0275 1.55302 16.5 2.64592 16.5H14.5214C15.6152 16.5 16.5003 15.0275 16.5003 13.8607V4.88917C16.5003 4.32907 16.2925 3.79173 15.9205 3.39589C15.5494 3.00006 15.0465 2.7774 14.5214 2.7774L14.5214 2.77743Z" fill="#464242"/>
</svg>
