<svg width="15" height="16" viewBox="0 0 15 16" fill="none" xmlns="http://www.w3.org/2000/svg">
<path d="M12.2528 0.50011H0.827538C0.6518 0.50011 0.5 0.63639 0.5 0.795602L0.500748 13.5377C0.500748 13.6983 0.651807 13.8211 0.828286 13.8211H8.64294C8.64294 13.8157 8.64444 13.811 8.64444 13.8062C8.63322 13.3913 8.64818 12.9751 8.64818 12.5595V11.0955C8.64818 11.055 8.64219 11.0159 8.64444 10.9754C8.65191 10.7203 8.7925 10.464 9.05948 10.3547C9.26289 10.2704 9.45732 10.2805 9.6712 10.2805H12.5652V0.794818C12.5667 0.634926 12.4284 0.5 12.2526 0.5L12.2528 0.50011ZM5.96354 5.09786C5.92241 5.10595 5.88277 5.11675 5.84239 5.12822C5.83342 5.13159 5.8237 5.13362 5.81397 5.13631C5.81547 5.13631 5.81771 5.13496 5.81771 5.13294C5.81622 5.13429 5.81398 5.13429 5.81173 5.13631C5.80276 5.13969 5.79079 5.14306 5.78182 5.14643C5.7534 5.15453 5.74592 5.16802 5.77434 5.15655C5.72573 5.18017 5.67563 5.20041 5.62852 5.22739C5.61206 5.23751 5.59711 5.25101 5.57991 5.25978C5.56346 5.27327 5.54626 5.28541 5.5313 5.29823C5.50139 5.32387 5.47297 5.35086 5.44754 5.37784C5.4438 5.38121 5.44156 5.38459 5.43857 5.38796C5.40866 5.44328 5.36005 5.49456 5.32639 5.54988C5.32266 5.55123 5.31742 5.55797 5.31144 5.57147C5.30994 5.57821 5.30546 5.58631 5.30246 5.59306C5.30097 5.59845 5.29648 5.60318 5.29349 5.6079C5.29499 5.60453 5.29723 5.60115 5.30097 5.5998C5.29199 5.62139 5.28227 5.64568 5.2748 5.66727C5.26133 5.70775 5.25086 5.74823 5.24339 5.78871C5.24339 5.79208 5.24189 5.79545 5.24189 5.79883V5.79208C5.24787 5.72326 5.23591 5.82716 5.23441 5.83256C5.23815 5.82244 5.23815 5.81097 5.2404 5.79883C5.23441 5.86629 5.23292 5.93376 5.2389 6.00123C5.2374 5.99583 5.23516 5.99111 5.23292 5.98638C5.23666 5.99988 5.2389 6.01674 5.24189 6.03226C5.24937 6.06599 5.26283 6.09973 5.2718 6.13211C5.27928 6.15775 5.28302 6.18271 5.30172 6.20767C5.28826 6.20227 5.29424 6.20227 5.30172 6.21779C5.30172 6.22319 5.30172 6.22589 5.30321 6.23128C5.30321 6.23263 5.30172 6.23263 5.30172 6.23466C5.30172 6.24275 5.31069 6.25152 5.31293 6.26029C5.31144 6.25692 5.31144 6.25355 5.31144 6.25017C5.34285 6.30415 5.37725 6.35677 5.41464 6.40872C5.4109 6.40534 5.40566 6.40062 5.39968 6.39522C5.40865 6.40332 5.41613 6.41411 5.42361 6.42221C5.42361 6.42356 5.42511 6.42356 5.42511 6.42558C5.43258 6.43368 5.44006 6.44245 5.4438 6.44447C5.4625 6.46336 5.48269 6.48293 5.50213 6.50182C5.52606 6.52341 5.55074 6.54365 5.57691 6.56389C5.57317 6.56254 5.56944 6.56051 5.56794 6.55849C5.57392 6.55984 5.57916 6.56524 5.58439 6.56861C5.59037 6.57401 5.59561 6.57873 5.60309 6.5821C5.61206 6.5902 5.62178 6.59425 5.62702 6.5956C5.68086 6.62798 5.73919 6.65497 5.79752 6.68128C5.80874 6.68465 5.81995 6.68802 5.83117 6.6914C5.86707 6.70354 5.90221 6.71164 5.93961 6.71973C5.96952 6.72648 5.99943 6.73188 6.02934 6.7366C6.03832 6.73795 6.04804 6.73525 6.05776 6.7366C6.13105 6.742 6.20359 6.7366 6.27612 6.7366H6.86316C7.54368 6.7366 8.19802 7.05031 8.52705 7.60015C8.90471 8.23299 8.79253 9.02031 8.24887 9.54454C8.00584 9.77932 7.66557 9.95742 7.31559 10.0222C7.21239 10.0411 7.1077 10.0525 7.00524 10.0573V10.8952C7.00524 11.1259 6.79585 11.2986 6.54758 11.3081C6.3008 11.3182 6.08992 11.1111 6.08992 10.8952L6.08693 10.0633H4.7745C4.51876 10.0633 4.32731 9.87444 4.31684 9.65047C4.30562 9.42782 4.5352 9.23758 4.7745 9.23758H4.84031C5.5268 9.23758 6.21257 9.24298 6.89831 9.23893H6.97459C6.99852 9.23758 7.05087 9.23084 7.06283 9.22881C7.05685 9.23016 7.04189 9.23421 7.01048 9.23893C7.04189 9.23353 7.07629 9.22881 7.1077 9.22206C7.14883 9.21397 7.18847 9.20317 7.22885 9.19171C7.23782 9.18833 7.24754 9.18631 7.25726 9.18361C7.25577 9.18361 7.25353 9.18496 7.25128 9.18698C7.25278 9.18563 7.25502 9.18563 7.25726 9.18361C7.26624 9.18024 7.2782 9.17686 7.28718 9.17349C7.31335 9.16539 7.32307 9.1519 7.29466 9.16337C7.34326 9.13976 7.39337 9.11952 7.44048 9.09253C7.45693 9.08241 7.47189 9.06892 7.48909 9.06015C7.50554 9.04665 7.52274 9.03451 7.5377 9.02169C7.56761 8.99605 7.59603 8.96907 7.62145 8.94208C7.62519 8.93871 7.62893 8.93534 7.63043 8.93196C7.66034 8.87664 7.70895 8.82537 7.7426 8.77005C7.74634 8.7687 7.75157 8.75993 7.75756 8.74846C7.75905 8.74508 7.7613 8.74306 7.7613 8.74036C7.76279 8.73699 7.76504 8.73496 7.76504 8.73227V8.72889V8.72552V8.72215C7.76504 8.72215 7.76504 8.7208 7.76653 8.71877V8.71742L7.76504 8.71877C7.77401 8.69718 7.78149 8.6729 7.78897 8.65131C7.80243 8.61083 7.8129 8.57035 7.82037 8.52987C7.82037 8.5265 7.82187 8.52447 7.82187 8.52178C7.82785 8.45296 7.82935 8.3855 7.82337 8.31601C7.82486 8.3214 7.8271 8.32613 7.82935 8.33085C7.82561 8.31736 7.82337 8.30049 7.82187 8.28497C7.81439 8.25124 7.80691 8.21751 7.7957 8.18512C7.78822 8.15949 7.77924 8.13453 7.76952 8.10956C7.76952 8.10417 7.76578 8.09472 7.76055 8.08393C7.76055 8.08258 7.75905 8.08258 7.75905 8.08055C7.75307 8.06841 7.74783 8.05694 7.74409 8.04682C7.74559 8.05492 7.74783 8.06166 7.75157 8.06706C7.72017 8.01309 7.68577 7.96249 7.65062 7.90986C7.65436 7.91324 7.65959 7.91796 7.66558 7.92336C7.6566 7.91526 7.64912 7.90649 7.64164 7.89637C7.64015 7.89502 7.64015 7.893 7.63791 7.89097C7.63043 7.88086 7.62295 7.87411 7.61921 7.87073C7.60051 7.85184 7.58032 7.83228 7.55938 7.81541C7.53545 7.79382 7.51078 7.77358 7.4846 7.75335C7.48834 7.7547 7.49208 7.75672 7.49582 7.75874C7.48984 7.75739 7.48685 7.75335 7.48086 7.75065H7.47937L7.47787 7.7493C7.47937 7.75065 7.48386 7.75065 7.48535 7.75267C7.48386 7.75132 7.48161 7.75132 7.48161 7.7493H7.48012L7.47413 7.7439C7.4704 7.74053 7.46666 7.73581 7.46292 7.73378C7.45544 7.72838 7.44946 7.72366 7.44422 7.72029C7.44273 7.71894 7.44048 7.71894 7.43824 7.71894C7.38739 7.68858 7.33728 7.66632 7.28269 7.64135C7.30363 7.6481 7.30887 7.6481 7.30513 7.64675C7.31261 7.64675 7.23782 7.61842 7.24381 7.62314C7.24231 7.62314 7.24755 7.62651 7.26475 7.63528C7.25577 7.63191 7.24605 7.62853 7.23633 7.62719C7.20043 7.61707 7.16529 7.60695 7.12789 7.59885C7.09798 7.5921 7.06807 7.58671 7.03816 7.57996C7.04563 7.58131 7.05461 7.58131 7.06209 7.58131C7.06059 7.58131 7.03965 7.57794 7.02096 7.57591C7.01722 7.57591 7.01498 7.57456 7.01198 7.57456H7.006C6.99852 7.57456 6.99478 7.57321 6.99254 7.57321C6.99403 7.57321 6.99628 7.57321 6.99852 7.57456C6.92972 7.56916 6.86018 7.56916 6.79288 7.56916H6.20584C5.52532 7.56916 4.87097 7.26221 4.54194 6.71236C4.16428 6.07953 4.27647 5.29559 4.82013 4.77074C5.06316 4.53596 5.40343 4.3592 5.7534 4.29511C5.86408 4.27487 5.974 4.26475 6.08395 4.26003V3.4221C6.08395 3.19138 6.29335 3.01867 6.54161 3.00922C6.7884 2.9991 6.99927 3.20621 6.99927 3.4221L7.00077 4.26138H8.29076C8.5465 4.26138 8.73795 4.45029 8.74842 4.67426C8.75964 4.8969 8.53006 5.08714 8.29076 5.08714H8.22495C7.53846 5.08714 6.85269 5.07905 6.16695 5.08377C6.14078 5.08377 6.1161 5.08242 6.09067 5.08242C6.04954 5.08377 5.92989 5.10401 6.06225 5.08107C6.03085 5.08782 5.99719 5.09119 5.96354 5.09794L5.96354 5.09786ZM9.37733 10.9403V13.4365L12.1427 10.9403H9.37733Z" fill="#464242"/>
<path d="M14.8908 3.04694V15.6212C14.8908 15.7818 14.7397 15.9167 14.5617 15.9167L3.3258 15.916C3.14782 15.916 3.01172 15.7797 3.01172 15.6205V14.4277H9.23951L13.2418 10.817V2.76367H14.5639C14.7397 2.76367 14.8907 2.88646 14.8907 3.04702L14.8908 3.04694Z" fill="#464242"/>
</svg>
