<svg width="16" height="16" viewBox="0 0 16 16" fill="none" xmlns="http://www.w3.org/2000/svg">
<path d="M7.57267 0.738516V7.00251C7.57267 7.31801 7.31621 7.5744 7.00064 7.5744H0.739021C0.423451 7.5744 0.166992 7.31801 0.166992 7.00251V0.738516C0.166992 0.423023 0.423451 0.166626 0.739021 0.166626H7.00064C7.31621 0.166626 7.57267 0.423023 7.57267 0.738516ZM7.00064 8.59609H0.739021C0.423451 8.59609 0.166992 8.85248 0.166992 9.16798V15.4281C0.166992 15.7436 0.423451 16 0.739021 16H7.00064C7.31621 16 7.57267 15.7436 7.57267 15.4281V9.16798C7.57267 8.85248 7.31621 8.59609 7.00064 8.59609ZM15.4283 8.59609H9.16668C8.85111 8.59609 8.59465 8.85248 8.59465 9.16798V15.4281C8.59465 15.7436 8.85111 16 9.16668 16H15.4283C15.7439 16 16.0003 15.7436 16.0003 15.4281V9.16798C16.0003 8.85248 15.7439 8.59609 15.4283 8.59609ZM9.12079 2.76665L9.65468 1.79065C9.87204 1.73727 10.364 1.68771 10.5127 1.84402L11.3173 1.35222C11.2449 1.15015 11.5195 0.7346 11.6644 0.566824L12.7779 0.540138C12.9342 0.704075 13.2241 1.10439 13.1592 1.31025L13.9906 1.76395C14.1278 1.60001 14.6236 1.6267 14.8448 1.67245L15.4244 2.62176C15.3596 2.83526 15.1575 3.28896 14.9477 3.33851L14.9668 4.28021C15.1804 4.31834 15.4054 4.7606 15.4778 4.9741L14.9439 5.95011C14.7228 6.00348 14.2308 6.05305 14.0859 5.89673L13.2775 6.38854C13.3499 6.5906 13.0792 7.00616 12.9304 7.17393L11.8207 7.20062C11.6644 7.03668 11.3746 6.63637 11.4356 6.4305L10.6081 5.97681C10.467 6.14074 9.97501 6.11406 9.75004 6.07212L9.1742 5.12281C9.23903 4.90549 9.44115 4.4518 9.65088 4.40225L9.62799 3.46055C9.41825 3.42242 9.19327 2.98016 9.12081 2.76666L9.12079 2.76665ZM11.8245 4.73772C12.1763 4.92835 12.6072 4.88831 12.918 4.63764C13.2288 4.38603 13.3575 3.97235 13.2441 3.58824C13.1316 3.20508 12.7979 2.92773 12.4003 2.88578C12.0028 2.84384 11.6195 3.04496 11.4279 3.3957C11.3021 3.62636 11.2725 3.89705 11.3478 4.14866C11.4222 4.40125 11.5938 4.61282 11.8245 4.7377L11.8245 4.73772Z" fill="#464242"/>
</svg>
