<svg width="15" height="14" viewBox="0 0 15 14" fill="none" xmlns="http://www.w3.org/2000/svg">
<path d="M13.9249 4.81802L5.08613 13.6549L2.0434 13.9914C1.16154 14.089 0.410957 13.3453 0.508566 12.4569L0.845152 9.41479L9.68388 0.577961C10.4547 -0.192654 11.7 -0.192654 12.4674 0.577961L13.9215 2.0317C14.6923 2.80231 14.6923 4.05078 13.9249 4.81802ZM10.5994 5.85785L8.64384 3.90271L2.39008 10.1585L2.14437 12.3559L4.34227 12.1103L10.5994 5.85785ZM12.7805 3.17584L11.3264 1.72211C11.1884 1.58413 10.9629 1.58413 10.8283 1.72211L9.78823 2.76193L11.7438 4.71707L12.7838 3.67725C12.9185 3.53591 12.9185 3.31381 12.7805 3.17584Z" fill="#464242"/>
</svg>
