<svg width="23" height="21" viewBox="0 0 23 21" fill="none" xmlns="http://www.w3.org/2000/svg">
<path d="M4.30387 15.65H7.04261V23.8662H4.30387V15.65ZM10.0857 23.8662H12.8244V8.95532H10.0857V23.8662ZM6.30315 4.1044V0.32798L0.825667 5.80546H4.60209C5.54114 5.80427 6.3019 5.04351 6.30309 4.10446L6.30315 4.1044ZM15.8674 23.8662H18.6062V11.9984H15.8674V23.8662ZM22.41 2.22136V25.1227C22.4088 26.3506 21.4127 27.3444 20.186 27.3444H2.72404C1.49733 27.3444 0.501187 26.3506 0.5 25.1227V6.71838H4.60203C6.0451 6.71719 7.21476 5.5475 7.21594 4.10446V0H20.1857C21.4124 0 22.4086 0.993737 22.4098 2.22167L22.41 2.22136ZM7.95553 15.1936C7.95553 14.9416 7.75107 14.7371 7.49907 14.7371H3.84741C3.59541 14.7371 3.39096 14.9416 3.39096 15.1936V24.3227C3.39096 24.5747 3.59541 24.7792 3.84741 24.7792H7.49907C7.75107 24.7792 7.95553 24.5747 7.95553 24.3227V15.1936ZM13.7373 8.49886C13.7373 8.24686 13.5329 8.04241 13.2809 8.04241H9.6292C9.3772 8.04241 9.17275 8.24686 9.17275 8.49886V24.3227C9.17275 24.5747 9.3772 24.7792 9.6292 24.7792H13.2809C13.5329 24.7792 13.7373 24.5747 13.7373 24.3227V8.49886ZM19.5191 11.5419C19.5191 11.2899 19.3146 11.0855 19.0626 11.0855H15.411C15.159 11.0855 14.9545 11.2899 14.9545 11.5419V24.3227C14.9545 24.5747 15.159 24.7792 15.411 24.7792H19.0626C19.3146 24.7792 19.5191 24.5747 19.5191 24.3227V11.5419Z" fill="#464242"/>
</svg>
