<svg width="26" height="27" viewBox="0 0 26 27" fill="none" xmlns="http://www.w3.org/2000/svg">
<path d="M0.75 23.7891C0.75 25.1477 1.92578 26.25 3.375 26.25H22.625C24.0742 26.25 25.25 25.1477 25.25 23.7891V9.84375H0.75V23.7891ZM18.25 13.7402C18.25 13.4019 18.5453 13.125 18.9062 13.125H21.0938C21.4547 13.125 21.75 13.4019 21.75 13.7402V15.791C21.75 16.1294 21.4547 16.4062 21.0938 16.4062H18.9062C18.5453 16.4062 18.25 16.1294 18.25 15.791V13.7402ZM18.25 20.3027C18.25 19.9644 18.5453 19.6875 18.9062 19.6875H21.0938C21.4547 19.6875 21.75 19.9644 21.75 20.3027V22.3535C21.75 22.6919 21.4547 22.9688 21.0938 22.9688H18.9062C18.5453 22.9688 18.25 22.6919 18.25 22.3535V20.3027ZM11.25 13.7402C11.25 13.4019 11.5453 13.125 11.9062 13.125H14.0938C14.4547 13.125 14.75 13.4019 14.75 13.7402V15.791C14.75 16.1294 14.4547 16.4062 14.0938 16.4062H11.9062C11.5453 16.4062 11.25 16.1294 11.25 15.791V13.7402ZM11.25 20.3027C11.25 19.9644 11.5453 19.6875 11.9062 19.6875H14.0938C14.4547 19.6875 14.75 19.9644 14.75 20.3027V22.3535C14.75 22.6919 14.4547 22.9688 14.0938 22.9688H11.9062C11.5453 22.9688 11.25 22.6919 11.25 22.3535V20.3027ZM4.25 13.7402C4.25 13.4019 4.54531 13.125 4.90625 13.125H7.09375C7.45469 13.125 7.75 13.4019 7.75 13.7402V15.791C7.75 16.1294 7.45469 16.4062 7.09375 16.4062H4.90625C4.54531 16.4062 4.25 16.1294 4.25 15.791V13.7402ZM4.25 20.3027C4.25 19.9644 4.54531 19.6875 4.90625 19.6875H7.09375C7.45469 19.6875 7.75 19.9644 7.75 20.3027V22.3535C7.75 22.6919 7.45469 22.9688 7.09375 22.9688H4.90625C4.54531 22.9688 4.25 22.6919 4.25 22.3535V20.3027ZM22.625 3.28125H20V0.820312C20 0.369141 19.6063 0 19.125 0H17.375C16.8937 0 16.5 0.369141 16.5 0.820312V3.28125H9.5V0.820312C9.5 0.369141 9.10625 0 8.625 0H6.875C6.39375 0 6 0.369141 6 0.820312V3.28125H3.375C1.92578 3.28125 0.75 4.38354 0.75 5.74219V8.20312H25.25V5.74219C25.25 4.38354 24.0742 3.28125 22.625 3.28125Z" fill="#464242"/>
</svg>
