<svg width="22" height="22" viewBox="0 0 22 22" fill="none" xmlns="http://www.w3.org/2000/svg">
<path d="M20.416 1.58616C18.3011 -0.528719 14.865 -0.528719 12.7501 1.58616L8.78328 5.55303C8.25051 6.08579 7.84412 6.70955 7.57218 7.40608C7.21734 8.31187 7.11625 9.30866 7.27192 10.2681C7.28506 10.3561 7.30326 10.442 7.32145 10.53C7.34471 10.6361 7.37099 10.7443 7.3993 10.8504C7.64799 11.7431 8.12616 12.5609 8.78428 13.2211C9.40297 13.8398 10.1632 14.2977 10.9921 14.5596L11.1579 14.3938C11.1761 14.3756 11.1913 14.3604 11.2095 14.3422C11.2146 14.3372 11.2196 14.3291 11.2247 14.324C11.2348 14.3109 11.2479 14.3008 11.258 14.2876C11.2631 14.2795 11.2712 14.2725 11.2762 14.2674C11.2863 14.2573 11.2944 14.2441 11.3045 14.234C11.3126 14.226 11.3177 14.2189 11.3227 14.2108C11.3308 14.2007 11.3409 14.1906 11.349 14.1774C11.3571 14.1693 11.3621 14.1623 11.3672 14.1511C11.3753 14.141 11.3824 14.1309 11.3935 14.1178C11.3985 14.1097 11.4066 14.0996 11.4117 14.0915C11.4198 14.0814 11.4268 14.0682 11.4349 14.0581C11.44 14.05 11.4481 14.0399 11.4531 14.0319C11.4612 14.0217 11.4683 14.0086 11.4764 13.9985C11.4814 13.9904 11.4865 13.9803 11.4946 13.9722C11.5027 13.9591 11.5097 13.949 11.5148 13.9358C11.5199 13.9277 11.5249 13.9176 11.53 13.9095C11.5381 13.8964 11.5451 13.8863 11.5502 13.8731C11.5552 13.8651 11.5603 13.858 11.5653 13.8469C11.5734 13.8337 11.5805 13.8206 11.5856 13.8084C11.5906 13.8004 11.5937 13.7933 11.5987 13.7852C11.6068 13.77 11.6169 13.7518 11.625 13.7357C11.628 13.7306 11.63 13.7255 11.6331 13.7205C11.6432 13.7003 11.6533 13.676 11.6644 13.6558C11.6674 13.6507 11.6695 13.6426 11.6725 13.6376C11.6806 13.6224 11.6856 13.6063 11.6927 13.5881C11.6958 13.58 11.7008 13.5729 11.7028 13.5618C11.7079 13.5486 11.7129 13.5335 11.718 13.5203C11.721 13.5102 11.7261 13.5021 11.7281 13.492C11.7332 13.4789 11.7382 13.4657 11.7433 13.4536C11.7463 13.4435 11.7514 13.4354 11.7534 13.4253C11.7584 13.4121 11.7615 13.399 11.7665 13.3869C11.7696 13.3768 11.7716 13.3667 11.7766 13.3586C11.7817 13.3454 11.7847 13.3323 11.7898 13.3202C11.7928 13.31 11.7948 13.2999 11.7979 13.2888C11.8009 13.2757 11.8059 13.2625 11.808 13.2504C11.811 13.2403 11.813 13.2302 11.8161 13.2191C11.8191 13.2059 11.8241 13.1928 11.8262 13.1806C11.8292 13.1705 11.8312 13.1604 11.8343 13.1493C11.8373 13.1362 11.8393 13.121 11.8423 13.1079C11.8454 13.0977 11.8474 13.0876 11.8474 13.0795C11.8504 13.0644 11.8524 13.0512 11.8555 13.0351C11.8585 13.025 11.8585 13.0169 11.8605 13.0068C11.8636 12.9916 11.8656 12.9734 11.8686 12.9572C11.8686 12.9491 11.8717 12.9421 11.8717 12.937C11.8747 12.9138 11.8767 12.8905 11.8797 12.8642V12.8561C11.8828 12.8359 11.8848 12.8147 11.8848 12.7914V12.7682C11.8848 12.753 11.8878 12.7368 11.8878 12.7217V12.6934V12.6489V12.6175V12.5761V12.5448V12.5033C11.8878 12.4932 11.8878 12.4831 11.8848 12.472C11.8848 12.4588 11.8818 12.4437 11.8818 12.4305C11.8818 12.4204 11.8787 12.4103 11.8787 12.3992C11.8787 12.3941 11.8787 12.3891 11.8757 12.381C11.3268 12.2465 10.8304 11.9696 10.4291 11.5662C10.0257 11.1628 9.74568 10.6634 9.61427 10.1115H9.60618L9.56979 9.90725C9.43735 9.14097 9.60112 8.36253 10.0095 7.72061C10.0459 7.66399 10.0843 7.60637 10.1258 7.54976C10.1622 7.50022 10.2006 7.4517 10.24 7.4052C10.2997 7.33241 10.3613 7.26569 10.4291 7.19795L14.3939 3.23316C15.5969 2.03016 17.559 2.03016 18.7621 3.23316C19.9651 4.43616 19.9651 6.39827 18.7621 7.60142L15.2096 11.164C15.2126 11.1721 15.2126 11.1772 15.2147 11.1843C15.2278 11.2389 15.2409 11.2904 15.2511 11.342C15.2511 11.345 15.2511 11.347 15.2541 11.347C15.2672 11.4016 15.2773 11.4582 15.2874 11.5128L15.2955 11.5512C15.3056 11.6058 15.3137 11.6604 15.3238 11.717C15.3238 11.7221 15.3269 11.7271 15.3269 11.7322C15.335 11.7837 15.34 11.8353 15.3471 11.8848C15.3471 11.898 15.3501 11.9081 15.3521 11.9212C15.3572 11.9758 15.3653 12.0304 15.3673 12.087C15.3673 12.0971 15.3703 12.1072 15.3703 12.1153C15.3754 12.1649 15.3784 12.2134 15.3805 12.2629C15.3805 12.273 15.3805 12.2831 15.3835 12.2943C15.3865 12.3489 15.3885 12.4034 15.3885 12.4601V12.4965V12.6491V12.6693C15.3885 12.7239 15.3855 12.7805 15.3835 12.8351C15.3835 12.8483 15.3835 12.8614 15.3805 12.8735C15.3774 12.9301 15.3754 12.9847 15.3703 13.0413V13.0444C15.3673 13.099 15.3623 13.1536 15.3572 13.2102C15.3572 13.2233 15.3542 13.2365 15.3542 13.2486C15.3491 13.3032 15.341 13.3578 15.336 13.4144C15.336 13.4225 15.3329 13.4295 15.3329 13.4376C15.3249 13.4872 15.3198 13.5357 15.3097 13.5852C15.3067 13.5984 15.3067 13.6085 15.3046 13.6186C15.2945 13.6732 15.2864 13.7278 15.2763 13.7813C15.2733 13.7915 15.2713 13.8016 15.2713 13.8127C15.2612 13.8622 15.2511 13.9087 15.2399 13.9572C15.2369 13.9674 15.2349 13.9754 15.2349 13.9835C15.2217 14.0381 15.2086 14.0897 15.1965 14.1443C15.1965 14.1493 15.1934 14.1544 15.1914 14.1594C15.6544 13.9107 16.079 13.5953 16.4571 13.2172L20.4219 9.25245C22.5277 7.13959 22.5277 3.70044 20.4158 1.58657L20.416 1.58616Z" fill="#464242"/>
<path d="M9.25117 20.4158L13.216 16.451C13.7487 15.9182 14.1581 15.2945 14.4301 14.598C14.7637 13.7467 14.8729 12.8147 14.7566 11.907C14.7465 11.8342 14.7364 11.7624 14.7233 11.6896C14.6919 11.5087 14.6535 11.3297 14.604 11.1538C14.3553 10.2612 13.8771 9.44333 13.219 8.78318C12.6003 8.1645 11.8401 7.70653 11.0111 7.4447L10.8453 7.6105C10.8271 7.62869 10.812 7.64386 10.7938 7.66205C10.7887 7.66711 10.7837 7.67216 10.7786 7.68025C10.7685 7.69339 10.7584 7.7035 10.7452 7.71664C10.7402 7.72473 10.7321 7.73181 10.727 7.73686C10.7169 7.74697 10.7088 7.76011 10.6987 7.77022C10.6906 7.77831 10.6856 7.78539 10.6805 7.79347C10.6704 7.80358 10.6623 7.81369 10.6543 7.82684C10.6462 7.83492 10.6411 7.842 10.6361 7.85312C10.628 7.86323 10.6209 7.87334 10.6128 7.88648C10.6078 7.89457 10.5997 7.90468 10.5946 7.91277C10.5865 7.92288 10.5794 7.93602 10.5714 7.94613C10.5663 7.95422 10.5582 7.96432 10.5532 7.97241C10.5451 7.98252 10.538 7.99566 10.5299 8.00577C10.5249 8.01588 10.5198 8.02397 10.5117 8.03206C10.5036 8.04217 10.4965 8.05531 10.4915 8.06542C10.4864 8.07351 10.4814 8.08362 10.4763 8.0917C10.4682 8.10484 10.4612 8.11495 10.4561 8.1281C10.4511 8.13618 10.446 8.14629 10.4409 8.15438C10.4329 8.16752 10.4258 8.18066 10.4207 8.1928C10.4157 8.20088 10.4126 8.20796 10.4076 8.21605C10.3995 8.23121 10.3924 8.24739 10.3843 8.26558C10.3813 8.27064 10.3793 8.27569 10.3762 8.28075C10.3661 8.30097 10.356 8.32523 10.3449 8.34545C10.3419 8.3505 10.3399 8.35859 10.3368 8.36364C10.3287 8.37881 10.3237 8.39498 10.3166 8.41015C10.3136 8.41824 10.3085 8.42835 10.3065 8.43643C10.3014 8.44957 10.2964 8.46272 10.2913 8.47788C10.2883 8.48799 10.2832 8.49608 10.2812 8.50619C10.2762 8.51933 10.2711 8.53247 10.2681 8.5446C10.265 8.55471 10.26 8.56482 10.258 8.57291C10.2529 8.58605 10.2499 8.5992 10.2448 8.61133C10.2418 8.62144 10.2398 8.63155 10.2347 8.64267C10.2297 8.65581 10.2266 8.66895 10.2246 8.68108C10.2216 8.69119 10.2196 8.7013 10.2165 8.71242C10.2135 8.72556 10.2084 8.7387 10.2064 8.75084C10.2034 8.76095 10.2014 8.77105 10.1983 8.78217C10.1953 8.79532 10.1933 8.80846 10.1882 8.82059C10.1852 8.8307 10.1832 8.84081 10.1801 8.85193C10.1771 8.86507 10.1751 8.88024 10.172 8.89338C10.169 8.90349 10.167 8.9136 10.167 8.92168C10.164 8.93483 10.1619 8.94999 10.1589 8.96313C10.1559 8.97324 10.1559 8.98133 10.1538 8.99144C10.1508 9.00661 10.1488 9.02278 10.1458 9.04098C10.1458 9.04907 10.1427 9.05614 10.1427 9.06423C10.1397 9.08748 10.1377 9.11073 10.1346 9.13702V9.1451C10.1316 9.16532 10.1296 9.18655 10.1296 9.20677C10.1296 9.21486 10.1296 9.22193 10.1265 9.23002C10.1265 9.24519 10.1235 9.26136 10.1235 9.27653V9.30483V9.34931V9.38065V9.4221V9.45344C10.1235 9.46658 10.1235 9.48175 10.1265 9.49489C10.1265 9.505 10.1265 9.51511 10.1296 9.52623C10.1296 9.53937 10.1326 9.55453 10.1326 9.56767C10.1326 9.57778 10.1356 9.58789 10.1356 9.59901C10.1356 9.60407 10.1356 9.61215 10.1387 9.61721C10.6876 9.75166 11.184 10.0286 11.5853 10.432C11.9887 10.8354 12.2687 11.3348 12.4001 11.8867L12.4082 11.8898L12.4416 12.094C12.5679 12.834 12.4213 13.5871 12.0432 14.2159C12.0432 14.219 12.0402 14.219 12.0402 14.221C12.0402 14.224 12.0372 14.226 12.0352 14.226C11.9836 14.311 11.926 14.3969 11.8643 14.4767C11.838 14.5131 11.8097 14.5465 11.7814 14.5799C11.7197 14.6577 11.652 14.7295 11.5792 14.8023L7.60537 18.7681C6.40237 19.9711 4.44027 19.9711 3.23711 18.7681C2.03411 17.5651 2.03411 15.603 3.23711 14.3998L6.79559 10.8414C6.79256 10.8333 6.79256 10.8282 6.79054 10.8211C6.7774 10.7696 6.76425 10.715 6.75415 10.6604C6.75415 10.6574 6.75415 10.6553 6.75111 10.6553C6.73797 10.6008 6.72786 10.5441 6.71775 10.4896C6.71472 10.4764 6.7127 10.4633 6.70966 10.4511C6.69955 10.3965 6.69147 10.342 6.68136 10.2853C6.68136 10.2803 6.67832 10.2752 6.67832 10.2671C6.67024 10.2156 6.66518 10.1661 6.65811 10.1145C6.65507 10.1014 6.65507 10.0912 6.65305 10.0781C6.648 10.0235 6.63991 9.96893 6.63789 9.91535C6.63789 9.90524 6.63485 9.89513 6.63485 9.88401C6.6298 9.83447 6.62677 9.78595 6.62474 9.73641C6.62474 9.7263 6.62474 9.71619 6.62171 9.70508C6.61868 9.65048 6.61666 9.59589 6.61666 9.53928V9.50289V9.35327V9.33305C6.61666 9.27846 6.61969 9.22185 6.62171 9.16726C6.62171 9.15411 6.62171 9.14097 6.62474 9.12884C6.62778 9.07223 6.6298 9.01764 6.63485 8.96102V8.95597C6.63991 8.90138 6.64294 8.84679 6.648 8.79321C6.648 8.78007 6.65103 8.76693 6.65305 8.75479C6.65811 8.7002 6.66619 8.64561 6.67125 8.59203C6.67125 8.58394 6.67428 8.57687 6.67428 8.56878C6.68237 8.51924 6.68742 8.47072 6.69753 8.42119C6.70056 8.40804 6.70056 8.39793 6.70259 8.38782C6.7127 8.33323 6.72078 8.27864 6.73089 8.22506C6.73393 8.21495 6.73595 8.20484 6.73595 8.19372C6.74606 8.14419 6.75617 8.09566 6.76729 8.04916C6.77032 8.04107 6.77234 8.03096 6.77234 8.02288C6.78548 7.96829 6.79862 7.9137 6.81076 7.86214C6.81076 7.85709 6.81379 7.85203 6.81379 7.84698C6.35077 8.09567 5.92619 8.41108 5.54811 8.78916L1.58616 12.7511C-0.528719 14.866 -0.528719 18.3021 1.58616 20.417C3.70003 22.5278 7.1392 22.5278 9.251 20.416L9.25117 20.4158Z" fill="#464242"/>
</svg>
