<svg width="24" height="24" viewBox="0 0 24 24" fill="none" xmlns="http://www.w3.org/2000/svg">
<path d="M1.63004 16.7143H14.5128C14.5956 16.7143 14.6775 16.6981 14.754 16.6665C14.8305 16.6348 14.8999 16.5884 14.9585 16.5299C15.017 16.4714 15.0634 16.4019 15.095 16.3254C15.1267 16.249 15.1429 16.167 15.1429 16.0842V14.2015C15.1429 14.1187 15.1267 14.0368 15.095 13.9603C15.0634 13.8838 15.017 13.8143 14.9585 13.7558C14.8999 13.6973 14.8305 13.6509 14.754 13.6193C14.6775 13.5876 14.5956 13.5714 14.5128 13.5714H1.63004C1.54729 13.5714 1.46533 13.5876 1.38886 13.6193C1.31239 13.6509 1.24291 13.6973 1.18439 13.7558C1.12587 13.8143 1.07947 13.8838 1.04783 13.9603C1.01619 14.0368 0.999936 14.1187 1 14.2015V16.0842C0.999936 16.167 1.01619 16.249 1.04783 16.3254C1.07947 16.4019 1.12587 16.4714 1.18439 16.5299C1.24291 16.5884 1.31239 16.6348 1.38886 16.6665C1.46533 16.6981 1.54729 16.7143 1.63004 16.7143ZM1.63004 4.14286H14.5128C14.5956 4.14292 14.6775 4.12667 14.754 4.09503C14.8305 4.06339 14.8999 4.01698 14.9585 3.95847C15.017 3.89995 15.0634 3.83047 15.095 3.754C15.1267 3.67753 15.1429 3.59557 15.1429 3.51281V1.63004C15.1429 1.54729 15.1267 1.46533 15.095 1.38886C15.0634 1.31239 15.017 1.24291 14.9585 1.18439C14.8999 1.12587 14.8305 1.07947 14.754 1.04783C14.6775 1.01619 14.5956 0.999936 14.5128 1H1.63004C1.54729 0.999936 1.46533 1.01619 1.38886 1.04783C1.31239 1.07947 1.24291 1.12587 1.18439 1.18439C1.12587 1.24291 1.07947 1.31239 1.04783 1.38886C1.01619 1.46533 0.999936 1.54729 1 1.63004V3.51281C0.999936 3.59557 1.01619 3.67753 1.04783 3.754C1.07947 3.83047 1.12587 3.89995 1.18439 3.95847C1.24291 4.01698 1.31239 4.06339 1.38886 4.09503C1.46533 4.12667 1.54729 4.14292 1.63004 4.14286ZM22.2143 7.28571H1.78571C1.57733 7.28571 1.37748 7.36849 1.23013 7.51584C1.08278 7.66319 1 7.86304 1 8.07143V9.64286C1 9.85124 1.08278 10.0511 1.23013 10.1984C1.37748 10.3458 1.57733 10.4286 1.78571 10.4286H22.2143C22.4227 10.4286 22.6225 10.3458 22.7699 10.1984C22.9172 10.0511 23 9.85124 23 9.64286V8.07143C23 7.86304 22.9172 7.66319 22.7699 7.51584C22.6225 7.36849 22.4227 7.28571 22.2143 7.28571ZM22.2143 19.8571H1.78571C1.57733 19.8571 1.37748 19.9399 1.23013 20.0873C1.08278 20.2346 1 20.4345 1 20.6429V22.2143C1 22.4227 1.08278 22.6225 1.23013 22.7699C1.37748 22.9172 1.57733 23 1.78571 23H22.2143C22.4227 23 22.6225 22.9172 22.7699 22.7699C22.9172 22.6225 23 22.4227 23 22.2143V20.6429C23 20.4345 22.9172 20.2346 22.7699 20.0873C22.6225 19.9399 22.4227 19.8571 22.2143 19.8571Z" fill="#464242"/>
</svg>
