<svg width="24" height="24" viewBox="0 0 24 24" fill="none" xmlns="http://www.w3.org/2000/svg">
<path d="M21.4286 3H18.8571V0.5625C18.8571 0.253125 18.5679 0 18.2143 0H16.0714C15.7179 0 15.4286 0.253125 15.4286 0.5625V3H8.57143V0.5625C8.57143 0.253125 8.28214 0 7.92857 0H5.78571C5.43214 0 5.14286 0.253125 5.14286 0.5625V3H2.57143C1.15179 3 0 4.00781 0 5.25V21.75C0 22.9922 1.15179 24 2.57143 24H21.4286C22.8482 24 24 22.9922 24 21.75V5.25C24 4.00781 22.8482 3 21.4286 3ZM21.1071 21.75H2.89286C2.71607 21.75 2.57143 21.6234 2.57143 21.4688V7.5H21.4286V21.4688C21.4286 21.6234 21.2839 21.75 21.1071 21.75Z" fill="#464242"/>
</svg>
