<svg width="28" height="29" viewBox="0 0 28 29" fill="none" xmlns="http://www.w3.org/2000/svg">
<rect x="0.5" y="1" width="27" height="27" rx="13.5" fill="#E6E5E6"/>
<rect x="0.5" y="1" width="27" height="27" rx="13.5" stroke="#908E8E"/>
<path d="M21 11.5V19.2143C21 19.9241 20.4121 20.5 19.6875 20.5H8.3125C7.58789 20.5 7 19.9241 7 19.2143V11.5C7 10.7902 7.58789 10.2143 8.3125 10.2143H10.7188L11.0551 9.33304C11.2465 8.83214 11.7359 8.5 12.2828 8.5H15.7145C16.2613 8.5 16.7508 8.83214 16.9422 9.33304L17.2812 10.2143H19.6875C20.4121 10.2143 21 10.7902 21 11.5ZM17.2812 15.3571C17.2812 13.5839 15.8102 12.1429 14 12.1429C12.1898 12.1429 10.7188 13.5839 10.7188 15.3571C10.7188 17.1304 12.1898 18.5714 14 18.5714C15.8102 18.5714 17.2812 17.1304 17.2812 15.3571ZM16.4062 15.3571C16.4062 16.6562 15.3262 17.7143 14 17.7143C12.6738 17.7143 11.5938 16.6562 11.5938 15.3571C11.5938 14.058 12.6738 13 14 13C15.3262 13 16.4062 14.058 16.4062 15.3571Z" fill="#908E8E"/>
</svg>
