<svg width="15" height="15" viewBox="0 0 15 15" fill="none" xmlns="http://www.w3.org/2000/svg">
<path d="M13 14.5H2C1.17156 14.5 0.5 13.8284 0.5 13V2C0.5 1.17156 1.17156 0.5 2 0.5H13C13.8284 0.5 14.5 1.17156 14.5 2V13C14.5 13.8284 13.8284 14.5 13 14.5ZM6.60356 11.4357L12.3536 5.68566C12.5488 5.49041 12.5488 5.17381 12.3536 4.97856L11.6465 4.27147C11.4512 4.07622 11.1346 4.07619 10.9393 4.27147L6.25 8.96078L4.06066 6.77144C3.86541 6.57619 3.54881 6.57619 3.35353 6.77144L2.64644 7.47853C2.45119 7.67378 2.45119 7.99038 2.64644 8.18563L5.89644 11.4356C6.09172 11.6309 6.40828 11.6309 6.60356 11.4357Z" fill="url(#paint0_linear_381_411)"/>
<defs>
<linearGradient id="paint0_linear_381_411" x1="-4.07778" y1="5.17961" x2="8.04297" y2="22.8455" gradientUnits="userSpaceOnUse">
<stop stop-color="#BCE411"/>
<stop offset="1" stop-color="#61AB01"/>
</linearGradient>
</defs>
</svg>
