<svg width="28" height="28" viewBox="0 0 28 28" fill="none" xmlns="http://www.w3.org/2000/svg">
<g clip-path="url(#clip0_1_2144)">
<circle cx="14" cy="14" r="14" fill="#DAD9D9" fill-opacity="0.6"/>
<circle cx="14" cy="14" r="13.5" stroke="#DAD9D9" stroke-opacity="0.6"/>
<path d="M14 12.8685L11.3654 10.2344C11.0534 9.92187 10.5464 9.92187 10.2344 10.2344C9.92187 10.5464 9.92187 11.0534 10.2344 11.3654L12.8685 14L10.2344 16.6346C9.92187 16.9466 9.92187 17.4536 10.2344 17.7656C10.5464 18.0781 11.0534 18.0781 11.3654 17.7656L14 15.1315L16.6346 17.7656C16.9466 18.0781 17.4536 18.0781 17.7656 17.7656C18.0781 17.4536 18.0781 16.9466 17.7656 16.6346L15.1315 14L17.7656 11.3654C18.0781 11.0534 18.0781 10.5464 17.7656 10.2344C17.4536 9.92187 16.9466 9.92187 16.6346 10.2344L14 12.8685Z" fill="#908E8E"/>
</g>
<defs>
<clipPath id="clip0_1_2144">
<rect width="28" height="28" fill="white"/>
</clipPath>
</defs>
</svg>
