<svg width="13" height="14" viewBox="0 0 13 14" fill="none" xmlns="http://www.w3.org/2000/svg">
<path d="M12.6518 13.125H12.0714V0.65625C12.0714 0.293809 11.7596 0 11.375 0H1.625C1.24037 0 0.928571 0.293809 0.928571 0.65625V13.125H0.348214C0.155913 13.125 0 13.2719 0 13.4531V14H13V13.4531C13 13.2719 12.8441 13.125 12.6518 13.125ZM3.71429 2.07812C3.71429 1.89692 3.8702 1.75 4.0625 1.75H5.22321C5.41552 1.75 5.57143 1.89692 5.57143 2.07812V3.17188C5.57143 3.35308 5.41552 3.5 5.22321 3.5H4.0625C3.8702 3.5 3.71429 3.35308 3.71429 3.17188V2.07812ZM3.71429 4.70312C3.71429 4.52192 3.8702 4.375 4.0625 4.375H5.22321C5.41552 4.375 5.57143 4.52192 5.57143 4.70312V5.79688C5.57143 5.97808 5.41552 6.125 5.22321 6.125H4.0625C3.8702 6.125 3.71429 5.97808 3.71429 5.79688V4.70312ZM5.22321 8.75H4.0625C3.8702 8.75 3.71429 8.60308 3.71429 8.42188V7.32812C3.71429 7.14692 3.8702 7 4.0625 7H5.22321C5.41552 7 5.57143 7.14692 5.57143 7.32812V8.42188C5.57143 8.60308 5.41552 8.75 5.22321 8.75ZM7.42857 13.125H5.57143V10.8281C5.57143 10.6469 5.72734 10.5 5.91964 10.5H7.08036C7.27266 10.5 7.42857 10.6469 7.42857 10.8281V13.125ZM9.28571 8.42188C9.28571 8.60308 9.1298 8.75 8.9375 8.75H7.77679C7.58448 8.75 7.42857 8.60308 7.42857 8.42188V7.32812C7.42857 7.14692 7.58448 7 7.77679 7H8.9375C9.1298 7 9.28571 7.14692 9.28571 7.32812V8.42188ZM9.28571 5.79688C9.28571 5.97808 9.1298 6.125 8.9375 6.125H7.77679C7.58448 6.125 7.42857 5.97808 7.42857 5.79688V4.70312C7.42857 4.52192 7.58448 4.375 7.77679 4.375H8.9375C9.1298 4.375 9.28571 4.52192 9.28571 4.70312V5.79688ZM9.28571 3.17188C9.28571 3.35308 9.1298 3.5 8.9375 3.5H7.77679C7.58448 3.5 7.42857 3.35308 7.42857 3.17188V2.07812C7.42857 1.89692 7.58448 1.75 7.77679 1.75H8.9375C9.1298 1.75 9.28571 1.89692 9.28571 2.07812V3.17188Z" fill="#77B724"/>
</svg>
