<svg width="96" height="96" viewBox="0 0 96 96" fill="none" xmlns="http://www.w3.org/2000/svg">
<rect x="-1" y="-1" width="98" height="98" rx="49" stroke="#DAD9D9" stroke-width="2"/>
<path fill-rule="evenodd" clip-rule="evenodd" d="M52.1366 43H54.8748H54.875C55.9102 43.0008 56.7492 43.8399 56.75 44.875V53.625C56.7492 54.6602 55.9102 55.4992 54.875 55.5H41.125C40.0898 55.4992 39.2508 54.6602 39.25 53.625V44.875C39.2508 43.8399 40.0898 43.0008 41.125 43H43.8632L44.5952 41.5367C44.9116 40.8992 45.5616 40.4977 46.2726 40.5H49.7272C50.4381 40.4977 51.0881 40.8992 51.4045 41.5367L52.1366 43ZM54.8748 54.25C55.2201 54.25 55.4998 53.9703 55.4998 53.625L55.4997 44.875C55.4997 44.5297 55.22 44.25 54.8747 44.25H51.7481C51.5137 44.2445 51.2997 44.1125 51.1903 43.9047H51.1911L50.2864 42.0953C50.1809 41.8836 49.9637 41.7492 49.727 41.75H46.2724C46.0357 41.7492 45.8185 41.8836 45.713 42.0953H45.7138L44.8091 43.9047C44.6974 44.1109 44.4841 44.243 44.2498 44.25H41.1248C40.7794 44.25 40.4998 44.5297 40.4998 44.875V53.625C40.4998 53.9703 40.7794 54.25 41.1248 54.25H54.8748ZM45.1272 46.0648C45.8888 45.3031 46.9224 44.875 47.9998 44.875L47.9998 44.875C49.077 44.8766 50.1091 45.3047 50.8708 46.0664C51.6325 46.828 52.0606 47.8601 52.0622 48.9374C52.0622 50.0147 51.6341 51.0483 50.8724 51.81C50.1108 52.5718 49.077 52.9999 47.9998 52.9999C46.9225 52.9999 45.8889 52.5718 45.1272 51.81C44.3654 51.0484 43.9373 50.0147 43.9373 48.9374C43.9373 47.8602 44.3654 46.8266 45.1272 46.0648ZM45.4014 50.0141C45.8366 51.0648 46.8623 51.75 47.9998 51.75L47.9999 51.7499C49.5521 51.7485 50.8107 50.4898 50.8123 48.9375C50.8123 47.8 50.1271 46.7742 49.0763 46.3391C48.0247 45.9039 46.8154 46.1446 46.0107 46.9485C45.2068 47.7531 44.9662 48.9625 45.4014 50.0141Z" fill="#333333"/>
</svg>
