<svg width="19" height="20" viewBox="0 0 19 20" fill="none" xmlns="http://www.w3.org/2000/svg">
<path d="M8.88681 1.18627V8.70306C8.88681 9.08166 8.57906 9.38933 8.20038 9.38933H0.686435C0.307751 9.38933 0 9.08166 0 8.70306V1.18627C0 0.807676 0.307751 0.5 0.686435 0.5H8.20038C8.57906 0.5 8.88681 0.807676 8.88681 1.18627ZM8.20038 10.6154H0.686435C0.307751 10.6154 0 10.923 0 11.3016V18.8137C0 19.1923 0.307751 19.5 0.686435 19.5H8.20038C8.57906 19.5 8.88681 19.1923 8.88681 18.8137V11.3016C8.88681 10.923 8.57906 10.6154 8.20038 10.6154ZM18.3136 10.6154H10.7996C10.4209 10.6154 10.1132 10.923 10.1132 11.3016V18.8137C10.1132 19.1923 10.4209 19.5 10.7996 19.5H18.3136C18.6923 19.5 19 19.1923 19 18.8137V11.3016C19 10.923 18.6923 10.6154 18.3136 10.6154ZM10.7446 3.62003L11.3852 2.44883C11.6461 2.38478 12.2364 2.3253 12.4148 2.51288L13.3804 1.92271C13.2935 1.68023 13.623 1.18157 13.7969 0.980238L15.1331 0.948215C15.3207 1.14494 15.6685 1.62532 15.5907 1.87235L16.5883 2.41679C16.753 2.22006 17.3479 2.25209 17.6133 2.30699L18.3089 3.44616C18.2311 3.70236 17.9886 4.2468 17.7369 4.30627L17.7598 5.4363C18.016 5.48205 18.286 6.01277 18.373 6.26897L17.7323 7.44018C17.4669 7.50423 16.8766 7.5637 16.7027 7.37613L15.7326 7.9663C15.8195 8.20877 15.4946 8.70744 15.3161 8.90877L13.9845 8.94079C13.7969 8.74407 13.4491 8.26369 13.5223 8.01665L12.5293 7.47222C12.36 7.66894 11.7696 7.63692 11.4997 7.58659L10.8087 6.44742C10.8864 6.18664 11.129 5.64221 11.3807 5.58275L11.3532 4.45271C11.1015 4.40696 10.8315 3.87624 10.7446 3.62004L10.7446 3.62003ZM13.989 5.98531C14.4112 6.21406 14.9283 6.16603 15.3012 5.86522C15.6742 5.56328 15.8286 5.06686 15.6925 4.60594C15.5575 4.14615 15.1571 3.81332 14.68 3.76299C14.203 3.71266 13.7431 3.954 13.5131 4.37489C13.3621 4.65167 13.3266 4.97651 13.417 5.27844C13.5062 5.58155 13.7121 5.83544 13.989 5.98529L13.989 5.98531Z" fill="white"/>
</svg>
