<svg width="24" height="24" viewBox="0 0 24 24" fill="none" xmlns="http://www.w3.org/2000/svg">
<path d="M11.2254 0.866865V10.3618C11.2254 10.84 10.8367 11.2286 10.3584 11.2286H0.867076C0.388738 11.2286 0 10.84 0 10.3618V0.866865C0 0.388644 0.388738 0 0.867076 0H10.3584C10.8367 0 11.2254 0.388644 11.2254 0.866865ZM10.3584 12.7773H0.867076C0.388738 12.7773 0 13.1659 0 13.6442V23.1331C0 23.6114 0.388738 24 0.867076 24H10.3584C10.8367 24 11.2254 23.6114 11.2254 23.1331V13.6442C11.2254 13.1659 10.8367 12.7773 10.3584 12.7773ZM23.1329 12.7773H13.6416C13.1633 12.7773 12.7746 13.1659 12.7746 13.6442V23.1331C12.7746 23.6114 13.1633 24 13.6416 24H23.1329C23.6113 24 24 23.6114 24 23.1331V13.6442C24 13.1659 23.6113 12.7773 23.1329 12.7773ZM13.5721 3.94109L14.3813 2.46168C14.7108 2.38077 15.4565 2.30564 15.6819 2.54258L16.9016 1.7971C16.7918 1.49082 17.2079 0.860929 17.4276 0.606617L19.1155 0.566166C19.3525 0.81466 19.7918 1.42145 19.6935 1.7335L20.9536 2.42121C21.1617 2.17271 21.9132 2.21316 22.2484 2.28251L23.127 3.72147C23.0288 4.04509 22.7224 4.7328 22.4045 4.80792L22.4334 6.23533C22.7571 6.29312 23.0982 6.9635 23.208 7.28712L22.3987 8.76654C22.0635 8.84745 21.3178 8.92257 21.0982 8.68564L19.8727 9.43111C19.9826 9.7374 19.5721 10.3673 19.3467 10.6216L17.6646 10.6621C17.4276 10.4136 16.9883 9.80676 17.0808 9.49472L15.8265 8.80701C15.6126 9.0555 14.8669 9.01505 14.5259 8.95148L13.653 7.51253C13.7513 7.18312 14.0577 6.49543 14.3756 6.42031L14.3409 4.99289C14.023 4.9351 13.6819 4.26472 13.5721 3.9411L13.5721 3.94109ZM17.6703 6.92882C18.2036 7.21776 18.8567 7.15709 19.3279 6.77712C19.799 6.39572 19.9941 5.76867 19.8221 5.18645C19.6515 4.60566 19.1458 4.18525 18.5432 4.12167C17.9406 4.05809 17.3596 4.36294 17.0692 4.89459C16.8784 5.24422 16.8336 5.65453 16.9478 6.03593C17.0605 6.4188 17.3206 6.7395 17.6703 6.92879L17.6703 6.92882Z" fill="url(#paint0_linear_371_6136)"/>
<defs>
<linearGradient id="paint0_linear_371_6136" x1="-7.84763" y1="8.0222" x2="12.9308" y2="38.3066" gradientUnits="userSpaceOnUse">
<stop stop-color="#BCE411"/>
<stop offset="1" stop-color="#61AB01"/>
</linearGradient>
</defs>
</svg>
