<svg width="24" height="24" viewBox="0 0 24 24" fill="none" xmlns="http://www.w3.org/2000/svg">
<path d="M12 0C5.368 0 0 5.368 0 12C0 18.632 5.368 24 12 24C18.632 24 24 18.632 24 12C24 5.368 18.632 0 12 0ZM10.9677 3.92232C10.9677 3.35479 11.4325 2.89006 12 2.89006C12.5675 2.89006 13.0323 3.35479 13.0323 3.92232V5.13502C13.0323 5.70255 12.5675 6.16728 12 6.16728C11.4325 6.16728 10.9677 5.70255 10.9677 5.13502V3.92232ZM5.10994 13.0323H3.89724C3.3297 13.0323 2.86498 12.5675 2.86498 12C2.86498 11.4325 3.3297 10.9677 3.89724 10.9677H5.10994C5.67747 10.9677 6.14219 11.4325 6.14219 12C6.14219 12.5675 5.67747 13.0323 5.10994 13.0323ZM7.87097 7.84464C7.45765 8.25796 6.81249 8.25796 6.40021 7.87085L5.54839 6.99385C5.13507 6.58053 5.13507 5.93537 5.54839 5.52309C5.9617 5.10977 6.60686 5.10977 7.01915 5.52309L7.87097 6.37491C8.28428 6.78722 8.28428 7.43238 7.87097 7.84466V7.84464ZM13.3166 14.7357C12.9033 14.9424 12.4648 15.02 12.0001 15.02C10.1937 15.02 8.7743 13.4454 9.00604 11.5875C9.13507 10.6581 9.67742 9.83246 10.503 9.36774C11.4062 8.85161 12.4385 8.85161 13.2904 9.26492L17.006 5.54827C17.4193 5.13496 18.0645 5.13496 18.4767 5.54827C18.8901 5.96159 18.8901 6.60675 18.4767 7.01903L14.7358 10.7096C15.4576 12.2066 14.8125 14.0131 13.3165 14.7359L13.3166 14.7357ZM20.0777 13.0321H18.865C18.2974 13.0321 17.8327 12.5674 17.8327 11.9998C17.8327 11.4323 18.2974 10.9676 18.865 10.9676H20.0777C20.6452 10.9676 21.1099 11.4323 21.1099 11.9998C21.1099 12.5674 20.6452 13.0321 20.0777 13.0321Z" fill="url(#paint0_linear_322_2730)"/>
<defs>
<linearGradient id="paint0_linear_322_2730" x1="-7.84763" y1="8.0222" x2="12.9308" y2="38.3066" gradientUnits="userSpaceOnUse">
<stop stop-color="#BCE411"/>
<stop offset="1" stop-color="#61AB01"/>
</linearGradient>
</defs>
</svg>
