<svg width="24" height="24" viewBox="0 0 24 24" fill="none" xmlns="http://www.w3.org/2000/svg">
<path d="M13.1155 11.4999C13.1155 12.3924 12.3926 13.1153 11.5002 13.1153C10.6077 13.1153 9.88477 12.3924 9.88477 11.4999C9.88477 10.6074 10.6077 9.88452 11.5002 9.88452C12.3926 9.88452 13.1155 10.6074 13.1155 11.4999Z" fill="#464242"/>
<path d="M11.5 1C5.68462 1 1 5.68462 1 11.5C1 17.3154 5.68462 22 11.5 22C17.3154 22 22 17.3154 22 11.5C22 5.68462 17.3154 1 11.5 1ZM5.84615 6.65385C5.84615 6.16923 6.16923 5.84615 6.65385 5.84615C7.13846 5.84615 7.46154 6.16923 7.46154 6.65385C7.46154 7.13846 7.13846 7.46154 6.65385 7.46154C6.16923 7.46154 5.84615 7.13846 5.84615 6.65385ZM11.5809 15.6194L7.13846 16.8309C6.57308 16.9924 6.00769 16.4271 6.16923 15.8617L7.38077 11.4192C7.94615 9.48077 9.4 7.94602 11.3383 7.46167L15.7808 6.25013C16.3462 6.08859 16.9115 6.65398 16.75 7.21936L15.5385 11.6618C15.0538 13.5195 13.5192 15.0541 11.5809 15.6194ZM16.3464 17.154C15.8618 17.154 15.5387 16.8309 15.5387 16.3463C15.5387 15.8617 15.8618 15.5386 16.3464 15.5386C16.831 15.5386 17.1541 15.8617 17.1541 16.3463C17.1541 16.8309 16.831 17.154 16.3464 17.154Z" fill="#464242"/>
</svg>
