<svg width="24" height="24" viewBox="0 0 24 24" fill="none" xmlns="http://www.w3.org/2000/svg">
<path d="M12.0001 16.8001C13.5742 16.8001 14.912 17.8107 15.4014 19.2179L15.4605 19.2085L15.6002 19.2001H22.8002C23.463 19.2001 24.0002 19.7373 24.0002 20.4001C24.0002 21.0151 23.5371 21.5223 22.9399 21.5916L22.8002 21.6001H15.6001C15.5326 21.6001 15.4661 21.5944 15.4014 21.5832C14.912 22.9895 13.5742 24 12.0001 24C10.426 24 9.08816 22.9894 8.5988 21.5822L8.53974 21.5916L8.40005 21.6H1.20001C0.537195 21.6 0 21.0628 0 20.4C0 19.785 0.463131 19.2778 1.06033 19.2085L1.20001 19.2H8.40006C8.46756 19.2 8.53412 19.2057 8.59881 19.2169C9.08819 17.8106 10.426 16.8001 12.0001 16.8001ZM12.0001 19.2001C11.3373 19.2001 10.8001 19.7373 10.8001 20.4001C10.8001 21.0629 11.3373 21.6001 12.0001 21.6001C12.6629 21.6001 13.2001 21.0629 13.2001 20.4001C13.2001 19.7373 12.6629 19.2001 12.0001 19.2001ZM3.60006 8.40005C5.17413 8.40005 6.51199 9.41067 7.00136 10.8178L7.06042 10.8084L7.20011 10.8H22.8002C23.463 10.8 24.0002 11.3372 24.0002 12C24.0002 12.615 23.5371 13.1222 22.9399 13.1916L22.8002 13.2H7.2001C7.1326 13.2 7.06604 13.1944 7.00135 13.1831C6.51196 14.5894 5.17415 15.6 3.60005 15.6C1.61159 15.6 2.88002e-05 13.9884 2.88002e-05 11.9999C2.88002e-05 10.0115 1.61159 8.39991 3.60005 8.39991L3.60006 8.40005ZM3.60006 10.8001C2.93725 10.8001 2.40005 11.3373 2.40005 12.0001C2.40005 12.6629 2.93725 13.2001 3.60006 13.2001C4.26287 13.2001 4.80006 12.6629 4.80006 12.0001C4.80006 11.3373 4.26287 10.8001 3.60006 10.8001ZM16.8001 0C18.3742 0 19.7121 1.01062 20.2014 2.41777L20.2605 2.4084L20.4002 2.39996H22.8002C23.463 2.39996 24.0002 2.93716 24.0002 3.59997C24.0002 4.21497 23.5371 4.72217 22.9399 4.79153L22.8002 4.79996H20.4002C20.3327 4.79996 20.2661 4.79434 20.2014 4.78309C19.712 6.18935 18.3742 7.1999 16.8001 7.1999C15.226 7.1999 13.8882 6.18928 13.3988 4.78213L13.3398 4.7915L13.2001 4.79994H1.20001C0.537195 4.79994 0 4.26275 0 3.59994C0 2.98493 0.463131 2.47774 1.06033 2.40838L1.20001 2.39994H13.2001C13.2676 2.39994 13.3341 2.40556 13.3988 2.41681C13.8882 1.01055 15.226 0 16.8001 0V0ZM16.8001 2.40001C16.1373 2.40001 15.6001 2.93721 15.6001 3.60002C15.6001 4.26283 16.1373 4.80003 16.8001 4.80003C17.4629 4.80003 18.0001 4.26283 18.0001 3.60002C18.0001 2.93721 17.4629 2.40001 16.8001 2.40001Z" fill="#C0C0C0"/>
</svg>
