<svg width="14" height="14" viewBox="0 0 14 14" fill="none" xmlns="http://www.w3.org/2000/svg">
<path d="M12.2502 1.86639H7.00002C6.51683 1.86639 6.12471 1.44901 6.12471 0.933633C6.12471 0.686001 6.03283 0.448001 5.86875 0.273012C5.70467 0.0980225 5.48237 0 5.25021 0H1.74979C0.783415 0 0 0.835633 0 1.86637V4.66638H12.2502C12.4922 4.66638 12.6874 4.8755 12.6874 5.13362C12.6874 5.39086 12.4922 5.59999 12.2502 5.59999H0V11.6664C0 12.698 0.783436 14 1.74979 14H12.2502C13.2174 14 14 12.698 14 11.6664V3.73362C14 3.23837 13.8162 2.76325 13.4873 2.41325C13.1591 2.06324 12.7145 1.86637 12.2502 1.86637L12.2502 1.86639Z" fill="#77B724"/>
</svg>
