<svg width="28" height="28" viewBox="0 0 28 28" fill="none" xmlns="http://www.w3.org/2000/svg">
<rect x="0.5" y="0.5" width="27" height="27" rx="13.5" fill="#E6E5E6"/>
<rect x="0.5" y="0.5" width="27" height="27" rx="13.5" stroke="#908E8E"/>
<path d="M14 8C13.4479 8 13 8.44793 13 9V13H9C8.44793 13 8 13.4479 8 14C8 14.5521 8.44793 15 9 15H13V19C13 19.5521 13.4479 20 14 20C14.5521 20 15 19.5521 15 19V15H19C19.5521 15 20 14.5521 20 14C20 13.4479 19.5521 13 19 13H15V9C15 8.44793 14.5521 8 14 8Z" fill="#908E8E"/>
</svg>
