<svg width="12" height="14" viewBox="0 0 12 14" fill="none" xmlns="http://www.w3.org/2000/svg">
<path d="M6.91667 3.71875V0H1.1875C0.80651 0 0.5 0.292578 0.5 0.65625V13.3438C0.5 13.7074 0.80651 14 1.1875 14H10.8125C11.1935 14 11.5 13.7074 11.5 13.3438V4.375H7.60417C7.22604 4.375 6.91667 4.07969 6.91667 3.71875ZM9.10664 9.49813L6.34461 12.1149C6.15411 12.2957 5.84646 12.2957 5.65596 12.1149L2.89393 9.49813C2.60318 9.22277 2.80714 8.75 3.2162 8.75H5.08333V6.5625C5.08333 6.32078 5.28844 6.125 5.54167 6.125H6.45833C6.71156 6.125 6.91667 6.32078 6.91667 6.5625V8.75H8.7838C9.19286 8.75 9.39682 9.22277 9.10664 9.49813ZM11.2995 2.87109L8.49505 0.191406C8.36615 0.0683594 8.19141 0 8.00807 0H7.83333V3.5H11.5V3.3332C11.5 3.16094 11.4284 2.99414 11.2995 2.87109Z" fill="#908E8E"/>
</svg>
