<svg width="19" height="18" viewBox="0 0 19 18" fill="none" xmlns="http://www.w3.org/2000/svg">
<path d="M16.2348 2.57145H14.3981V0.830375C14.3981 0.609392 14.1915 0.428589 13.9389 0.428589H12.4083C12.1558 0.428589 11.9491 0.609392 11.9491 0.830375V2.57145H7.05116V0.830375C7.05116 0.609392 6.84453 0.428589 6.59198 0.428589H5.06136C4.80881 0.428589 4.60218 0.609392 4.60218 0.830375V2.57145H2.76545C1.75142 2.57145 0.928711 3.29131 0.928711 4.17859V15.9643C0.928711 16.8516 1.75142 17.5714 2.76545 17.5714H16.2348C17.2489 17.5714 18.0716 16.8516 18.0716 15.9643V4.17859C18.0716 3.29131 17.2489 2.57145 16.2348 2.57145ZM16.0052 15.9643H2.99504C2.86876 15.9643 2.76545 15.8739 2.76545 15.7634V5.78573H16.2348V15.7634C16.2348 15.8739 16.1315 15.9643 16.0052 15.9643Z" fill="#77B724"/>
</svg>
