<svg width="13" height="11" viewBox="0 0 13 11" fill="none" xmlns="http://www.w3.org/2000/svg">
<path d="M6.49994 8.72523C5.04813 8.72523 3.8729 7.55467 3.76475 6.07129L1.75691 4.45492C1.49296 4.79985 1.25007 5.16451 1.05407 5.56327C1.01028 5.65349 0.987467 5.75317 0.987467 5.85427C0.987467 5.95536 1.01028 6.05504 1.05407 6.14526C2.09206 8.2549 4.14699 9.68225 6.49994 9.68225C7.01501 9.68225 7.5119 9.6025 7.9908 9.4737L6.9976 8.67319C6.83357 8.7062 6.667 8.72362 6.49994 8.72523ZM12.5066 9.88363L10.3906 8.18013C11.0334 7.61587 11.5621 6.9241 11.9458 6.14506C11.9896 6.05484 12.0124 5.95516 12.0124 5.85407C12.0124 5.75297 11.9896 5.65329 11.9458 5.56307C10.9078 3.45344 8.85289 2.02608 6.49994 2.02608C5.51449 2.02732 4.54504 2.28575 3.68015 2.77774L1.24509 0.817243C1.21334 0.791505 1.17702 0.772536 1.13823 0.761422C1.09944 0.750307 1.05892 0.747265 1.019 0.752468C0.979072 0.757671 0.940524 0.771017 0.905555 0.791745C0.870585 0.812473 0.839879 0.840175 0.815192 0.873269L0.439462 1.3771C0.38962 1.44389 0.367286 1.52857 0.377372 1.61251C0.387459 1.69645 0.429139 1.77278 0.493247 1.82471L11.7548 10.8911C11.7865 10.9168 11.8229 10.9358 11.8617 10.9469C11.9004 10.958 11.941 10.9611 11.9809 10.9559C12.0208 10.9507 12.0594 10.9373 12.0943 10.9166C12.1293 10.8959 12.16 10.8682 12.1847 10.8351L12.5606 10.3312C12.6104 10.2644 12.6327 10.1797 12.6226 10.0958C12.6125 10.0118 12.5708 9.93553 12.5066 9.88363ZM8.99013 7.05244L8.2379 6.44672C8.30125 6.25601 8.33486 6.05596 8.33743 5.85417C8.34117 5.55874 8.27834 5.26652 8.15398 5.00097C8.02963 4.73543 7.84723 4.50396 7.62142 4.32517C7.39561 4.14638 7.13269 4.02524 6.85379 3.97149C6.57488 3.91775 6.28776 3.93288 6.01549 4.01569C6.13091 4.1786 6.19335 4.37566 6.19369 4.57814C6.19084 4.64551 6.18095 4.71237 6.16421 4.77752L4.75528 3.64325C5.2447 3.21722 5.86212 2.98359 6.49994 2.9831C6.86195 2.98289 7.22045 3.05701 7.55495 3.20122C7.88944 3.34543 8.19337 3.55691 8.44935 3.82355C8.70533 4.09019 8.90834 4.40678 9.04679 4.75521C9.18523 5.10364 9.25638 5.47707 9.25618 5.85417C9.25618 6.28542 9.15493 6.68737 8.99013 7.05264V7.05244Z" fill="#464242"/>
</svg>
