<svg width="15" height="15" viewBox="0 0 15 15" fill="none" xmlns="http://www.w3.org/2000/svg">
<path d="M9.43081 5.56929C11.0645 7.20469 11.0421 9.82665 9.44066 11.437C9.43765 11.4403 9.43409 11.4438 9.43081 11.4471L7.59331 13.2846C5.97265 14.9052 3.33592 14.905 1.7155 13.2846C0.0948339 11.6642 0.0948339 9.02717 1.7155 7.40679L2.73012 6.39217C2.99918 6.12311 3.46255 6.30194 3.47644 6.68218C3.49416 7.16676 3.58105 7.65362 3.7414 8.12376C3.7957 8.28296 3.7569 8.45905 3.63796 8.578L3.28011 8.93584C2.51377 9.70218 2.48974 10.95 3.24853 11.7238C4.01481 12.5053 5.27432 12.5099 6.04648 11.7378L7.88398 9.90053C8.65482 9.12968 8.6516 7.88374 7.88398 7.11612C7.78278 7.01511 7.68084 6.93664 7.60121 6.88181C7.54488 6.84313 7.49837 6.79182 7.46539 6.73198C7.43241 6.67213 7.41387 6.6054 7.41126 6.53712C7.40043 6.24818 7.5028 5.95043 7.73112 5.72211L8.30682 5.14639C8.45779 4.99543 8.69461 4.97689 8.86966 5.09906C9.07014 5.23905 9.25791 5.3964 9.43081 5.56929ZM13.2845 1.71541C11.6641 0.0949715 9.02736 0.0947527 7.40669 1.71541L5.56919 3.55291C5.56591 3.55619 5.56235 3.55975 5.55935 3.56303C3.95793 5.17335 3.93548 7.79531 5.56919 9.43071C5.74208 9.6036 5.92984 9.76094 6.13031 9.90091C6.30537 10.0231 6.54222 10.0045 6.69316 9.85358L7.26885 9.27786C7.49717 9.04954 7.59955 8.75179 7.58872 8.46285C7.5861 8.39457 7.56756 8.32785 7.53458 8.268C7.5016 8.20815 7.45509 8.15684 7.39876 8.11816C7.31914 8.06333 7.2172 7.98486 7.116 7.88385C6.34838 7.11623 6.34515 5.87029 7.116 5.09944L8.9535 3.26222C9.72566 2.49006 10.9851 2.49471 11.7514 3.27616C12.5102 4.04999 12.4862 5.29779 11.7199 6.06413L11.362 6.42198C11.2431 6.54092 11.2043 6.71701 11.2586 6.87621C11.4189 7.34636 11.5058 7.83321 11.5235 8.31779C11.5375 8.69804 12.0008 8.87686 12.2699 8.6078L13.2845 7.59319C14.9052 5.97283 14.9052 3.3358 13.2845 1.71541Z" fill="url(#paint0_linear_381_5097)"/>
<defs>
<linearGradient id="paint0_linear_381_5097" x1="-4.07778" y1="5.17961" x2="8.04297" y2="22.8455" gradientUnits="userSpaceOnUse">
<stop stop-color="#BCE411"/>
<stop offset="1" stop-color="#61AB01"/>
</linearGradient>
</defs>
</svg>
