<svg width="28" height="28" viewBox="0 0 28 28" fill="none" xmlns="http://www.w3.org/2000/svg">
<rect x="0.5" y="0.5" width="27" height="27" rx="13.5" fill="#E6E5E6"/>
<rect x="0.5" y="0.5" width="27" height="27" rx="13.5" stroke="#908E8E"/>
<path d="M17.7992 12.5997V11.1995C17.7992 8.88059 15.9186 7 13.5997 7C11.2809 7 9.40027 8.88059 9.40027 11.1995V12.5997C8.6273 12.5997 8 13.227 8 14V19.5997C8 20.3727 8.6273 21 9.40027 21H17.7992C18.5722 21 19.1995 20.3727 19.1995 19.5997V14C19.1995 13.2257 18.5722 12.5997 17.7992 12.5997ZM10.8005 11.1995C10.8005 9.65614 12.0564 8.40027 13.5997 8.40027C15.143 8.40027 16.3989 9.65618 16.3989 11.1995V12.5997H10.7992L10.8005 11.1995ZM17.7992 19.5984H9.40027V13.9987H17.7992V19.5984ZM12.1995 16.7992C12.1995 16.0262 12.8268 15.3989 13.5997 15.3989C14.3727 15.3989 15 16.0262 15 16.7992C15 17.5722 14.3727 18.1995 13.5997 18.1995C12.8268 18.1982 12.1995 17.5722 12.1995 16.7992Z" fill="#908E8E"/>
</svg>
