<svg width="14" height="11" viewBox="0 0 14 11" fill="none" xmlns="http://www.w3.org/2000/svg">
<path d="M13.8062 5.98659L9.13934 10.7983C8.72265 11.2279 8.0004 10.9272 8.0004 10.3114V7.56185H4.22243C3.85297 7.56185 3.55573 7.25539 3.55573 6.87447V4.12492C3.55573 3.744 3.85297 3.43754 4.22243 3.43754H8.0004V0.687995C8.0004 0.075076 8.71988 -0.228519 9.13934 0.201097L13.8062 5.0128C14.0646 5.28202 14.0646 5.71737 13.8062 5.98659ZM5.3336 10.6551V9.50945C5.3336 9.32042 5.18359 9.16575 5.00025 9.16575H2.6668C2.17511 9.16575 1.77787 8.75619 1.77787 8.24924V2.75015C1.77787 2.24321 2.17511 1.83364 2.6668 1.83364H5.00025C5.18359 1.83364 5.3336 1.67898 5.3336 1.48995V0.344302C5.3336 0.155271 5.18359 0.000609155 5.00025 0.000609155H2.6668C1.1945 0.000609155 0 1.23218 0 2.75015V8.24924C0 9.76722 1.1945 10.9988 2.6668 10.9988H5.00025C5.18359 10.9988 5.3336 10.8441 5.3336 10.6551Z" fill="#908E8E"/>
</svg>
