<svg width="250" height="50" viewBox="0 0 250 50" fill="none" xmlns="http://www.w3.org/2000/svg">
<path d="M0 11.2244H13.0441V15.962C14.8187 13.7754 16.6204 12.3085 18.4491 11.5523C20.2778 10.7961 22.4128 10.4226 24.863 10.4226C27.4574 10.4226 29.6825 10.8508 31.5292 11.6981C33.3759 12.5454 34.9524 13.748 36.2496 15.306C37.3036 16.5724 38.0242 17.9754 38.4116 19.5334C38.7989 21.0913 38.9881 22.8588 38.9881 24.8541V48.615H25.944V29.7375C25.944 27.888 25.8089 26.3938 25.5477 25.2549C25.2864 24.1161 24.818 23.205 24.1424 22.5217C23.5658 21.9386 22.9172 21.5286 22.1966 21.2827C21.4759 21.0367 20.7102 20.9182 19.8904 20.9182C17.6834 20.9182 15.9898 21.5833 14.8097 22.9226C13.6296 24.2619 13.0441 26.166 13.0441 28.6442V48.615H0V11.2244Z" fill="white"/>
<path d="M42.8076 29.5919C42.8076 26.8222 43.3571 24.2347 44.4652 21.8295C45.5732 19.4243 47.1046 17.3379 49.0774 15.5613C51.0503 13.7847 53.3924 12.3907 56.1039 11.3703C58.8154 10.3499 61.7882 9.83972 65.0042 9.83972C68.1751 9.83972 71.1208 10.3408 73.8324 11.3339C76.5439 12.327 78.9041 13.7118 80.8949 15.4884C82.8857 17.265 84.4352 19.3787 85.5432 21.8295C86.6512 24.2803 87.2007 26.9953 87.2007 29.9563C87.2007 32.9173 86.6332 35.6323 85.5072 38.0831C84.3811 40.5339 82.8317 42.6476 80.8589 44.4242C78.886 46.2008 76.5258 47.5674 73.7603 48.5423C70.9947 49.5172 68.004 50 64.788 50C61.617 50 58.6893 49.5172 55.9958 48.5423C53.3023 47.5674 50.9872 46.1826 49.0414 44.3878C47.0956 42.593 45.5732 40.4428 44.4652 37.9374C43.3571 35.4319 42.8076 32.6531 42.8076 29.5919ZM56.5724 29.7377C56.5724 31.0041 56.7976 32.152 57.257 33.1998C57.7164 34.2475 58.311 35.1586 59.0587 35.933C59.8064 36.7074 60.6892 37.3178 61.7251 37.7551C62.7611 38.1925 63.8511 38.4111 65.0042 38.4111C66.1572 38.4111 67.2473 38.1925 68.2832 37.7551C69.3192 37.3178 70.202 36.7074 70.9497 35.933C71.6974 35.1586 72.2919 34.2475 72.7514 33.1998C73.2108 32.152 73.436 31.0223 73.436 29.8105C73.436 28.6444 73.2108 27.542 72.7514 26.4942C72.2919 25.4465 71.6974 24.5354 70.9497 23.761C70.202 22.9866 69.3192 22.3762 68.2832 21.9388C67.2473 21.5015 66.1572 21.2829 65.0042 21.2829C63.8511 21.2829 62.7611 21.5015 61.7251 21.9388C60.6892 22.3762 59.8064 22.9866 59.0587 23.761C58.311 24.5354 57.7164 25.4374 57.257 26.4578C56.7976 27.4782 56.5724 28.5715 56.5724 29.7377Z" fill="white"/>
<path d="M101.254 11.2246L110.046 30.3937L118.983 11.2246H133.54L114.298 48.6152H105.578L86.5527 11.2246H101.254Z" fill="white"/>
<path d="M161.141 11.2244H174.257V48.615H161.141V44.4605C158.357 48.0046 154.583 49.7812 149.826 49.7812C147.133 49.7812 144.665 49.2801 142.404 48.287C140.142 47.294 138.179 45.8909 136.494 44.0961C134.81 42.3013 133.503 40.1876 132.566 37.755C131.63 35.3224 131.161 32.6803 131.161 29.8104C131.161 27.1409 131.621 24.599 132.53 22.1938C133.44 19.7885 134.719 17.6839 136.35 15.8891C137.98 14.0943 139.926 12.673 142.187 11.6253C144.448 10.5775 146.944 10.0582 149.682 10.0582C154.295 10.0582 158.114 11.6891 161.141 14.9416V11.2244ZM144.71 29.8104C144.71 31.0221 144.926 32.1519 145.358 33.1996C145.791 34.2473 146.376 35.1584 147.124 35.9328C147.872 36.7072 148.754 37.3177 149.79 37.755C150.826 38.1923 151.943 38.411 153.141 38.411C154.295 38.411 155.385 38.1923 156.421 37.755C157.456 37.3177 158.339 36.7072 159.087 35.9328C159.835 35.1584 160.429 34.2564 160.889 33.236C161.348 32.2156 161.573 31.1223 161.573 29.9562C161.573 28.79 161.348 27.6876 160.889 26.6398C160.429 25.5921 159.835 24.681 159.087 23.9066C158.339 23.1322 157.456 22.5218 156.421 22.0845C155.385 21.6471 154.295 21.4285 153.141 21.4285C151.943 21.4285 150.826 21.6471 149.79 22.0845C148.754 22.5218 147.872 23.1322 147.124 23.9066C146.376 24.681 145.791 25.5739 145.358 26.567C144.926 27.56 144.71 28.6442 144.71 29.8104Z" fill="white"/>
<path d="M205.606 29.5919C205.606 26.8222 206.156 24.2347 207.264 21.8295C208.372 19.4243 209.903 17.3379 211.876 15.5613C213.849 13.7847 216.191 12.3907 218.903 11.3703C221.614 10.3499 224.587 9.83972 227.803 9.83972C230.974 9.83972 233.92 10.3408 236.631 11.3339C239.343 12.327 241.703 13.7118 243.694 15.4884C245.685 17.265 247.234 19.3787 248.342 21.8295C249.45 24.2803 250 26.9953 250 29.9563C250 32.9173 249.432 35.6323 248.306 38.0831C247.18 40.5339 245.631 42.6476 243.658 44.4242C241.685 46.2008 239.325 47.5674 236.559 48.5423C233.794 49.5172 230.803 50 227.587 50C224.416 50 221.488 49.5172 218.795 48.5423C216.101 47.5674 213.786 46.1826 211.84 44.3878C209.894 42.593 208.372 40.4428 207.264 37.9374C206.156 35.4319 205.606 32.6531 205.606 29.5919ZM219.371 29.7377C219.371 31.0041 219.596 32.152 220.056 33.1998C220.515 34.2475 221.11 35.1586 221.857 35.933C222.605 36.7074 223.488 37.3178 224.524 37.7551C225.56 38.1925 226.65 38.4111 227.803 38.4111C228.956 38.4111 230.046 38.1925 231.082 37.7551C232.118 37.3178 233.001 36.7074 233.749 35.933C234.496 35.1586 235.091 34.2475 235.55 33.1998C236.01 32.152 236.235 31.0223 236.235 29.8105C236.235 28.6444 236.01 27.542 235.55 26.4942C235.091 25.4465 234.496 24.5354 233.749 23.761C233.001 22.9866 232.118 22.3762 231.082 21.9388C230.046 21.5015 228.956 21.2829 227.803 21.2829C226.65 21.2829 225.56 21.5015 224.524 21.9388C223.488 22.3762 222.605 22.9866 221.857 23.761C221.11 24.5354 220.515 25.4374 220.056 26.4578C219.596 27.4782 219.371 28.5715 219.371 29.7377Z" fill="white"/>
<path d="M204.55 11.2245H198.649C196.812 11.2245 195.325 9.7212 195.325 7.8626V3.36188C195.325 1.50328 193.839 0 192.001 0H182.281V10.9876H188.938V21.9934H182.281V22.2303V45.2532C182.281 47.1118 183.768 48.6151 185.605 48.6151H195.325V22.2303H204.55V11.2245Z" fill="url(#paint0_linear_1_1563)"/>
<defs>
<linearGradient id="paint0_linear_1_1563" x1="175" y1="16.25" x2="216.664" y2="44.0658" gradientUnits="userSpaceOnUse">
<stop stop-color="#BCE411"/>
<stop offset="1" stop-color="#61AB01"/>
</linearGradient>
</defs>
</svg>
