<svg width="24" height="24" viewBox="0 0 24 24" fill="none" xmlns="http://www.w3.org/2000/svg">
<path d="M23.7078 22.2939L18.6003 17.1864C20.913 14.3854 21.6135 10.5879 20.4522 7.14524C19.2909 3.70229 16.4338 1.1049 12.896 0.27725C9.35966 -0.551935 5.64435 0.507019 3.07572 3.07569C0.5071 5.64436 -0.551997 9.35931 0.277283 12.8959C1.10519 16.4335 3.70265 19.2908 7.14527 20.4522C10.5882 21.6135 14.3854 20.913 17.1864 18.6003L22.2939 23.7078C22.4812 23.8951 22.736 24 23.0007 24C23.2654 24 23.5202 23.8951 23.7075 23.7078C23.8948 23.5205 23.9997 23.2657 23.9997 23.001C23.9997 22.7363 23.8948 22.4815 23.7075 22.2942L23.7078 22.2939ZM2.02206 10.5131C2.02206 8.26156 2.91617 6.10117 4.50955 4.50916C6.10171 2.91576 8.26194 2.02168 10.5134 2.02168C12.7649 2.02168 14.9253 2.91579 16.5173 4.50916C18.1108 6.10133 19.0048 8.26156 19.0048 10.5131C19.0048 12.7646 18.1107 14.925 16.5173 16.517C14.9252 18.1104 12.7649 19.0044 10.5134 19.0044C8.26194 19.0019 6.10411 18.1066 4.51211 16.5144C2.91994 14.9223 2.02462 12.7646 2.02209 10.5131L2.02206 10.5131Z" fill="black"/>
</svg>
