<svg width="12" height="14" viewBox="0 0 12 14" fill="none" xmlns="http://www.w3.org/2000/svg">
<path d="M9.79919 5.59973V4.19946C9.79919 1.88059 7.91861 0 5.59973 0C3.28086 0 1.40027 1.88059 1.40027 4.19946V5.59973C0.627299 5.59973 0 6.22703 0 7V12.5997C0 13.3727 0.627299 14 1.40027 14H9.79919C10.5722 14 11.1995 13.3727 11.1995 12.5997V7C11.1995 6.22572 10.5722 5.59973 9.79919 5.59973ZM2.80054 4.19946C2.80054 2.65614 4.05645 1.40027 5.59973 1.40027C7.14302 1.40027 8.39893 2.65618 8.39893 4.19946V5.59973H2.79919L2.80054 4.19946ZM9.79919 12.5984H1.40027V6.99866H9.79919V12.5984ZM4.19946 9.79919C4.19946 9.02622 4.82676 8.39893 5.59973 8.39893C6.3727 8.39893 7 9.02622 7 9.79919C7 10.5722 6.3727 11.1995 5.59973 11.1995C4.82676 11.1982 4.19946 10.5722 4.19946 9.79919Z" fill="black"/>
</svg>
