<svg width="15" height="15" viewBox="0 0 15 15" fill="none" xmlns="http://www.w3.org/2000/svg">
<path d="M7.5 0.5C3.63306 0.5 0.5 3.63306 0.5 7.5C0.5 11.3669 3.63306 14.5 7.5 14.5C11.3669 14.5 14.5 11.3669 14.5 7.5C14.5 3.63306 11.3669 0.5 7.5 0.5ZM7.5 13.1452C4.38105 13.1452 1.85484 10.619 1.85484 7.5C1.85484 4.38105 4.38105 1.85484 7.5 1.85484C10.619 1.85484 13.1452 4.38105 13.1452 7.5C13.1452 10.619 10.619 13.1452 7.5 13.1452ZM9.24435 10.1984L6.84798 8.45685C6.76048 8.39193 6.70968 8.29032 6.70968 8.18306V3.54839C6.70968 3.3621 6.8621 3.20968 7.04839 3.20968H7.95161C8.1379 3.20968 8.29032 3.3621 8.29032 3.54839V7.54798L10.1758 8.91976C10.3282 9.02984 10.3593 9.24153 10.2492 9.39395L9.71855 10.125C9.60847 10.2746 9.39677 10.3085 9.24435 10.1984Z" fill="#464242"/>
</svg>
