<svg width="19" height="18" viewBox="0 0 19 18" fill="none" xmlns="http://www.w3.org/2000/svg">
<circle cx="9.5" cy="9" r="7.875" fill="url(#paint0_linear_381_517)"/>
<path d="M9.5004 10.5003C10.0954 10.5003 10.6323 10.1347 10.86 9.57452C11.0876 9.01377 10.9617 8.36865 10.5409 7.93982C10.1201 7.51091 9.48717 7.3826 8.9371 7.61462C8.38752 7.84665 8.02881 8.39391 8.02881 9.00036C8.02881 9.39821 8.18402 9.77966 8.45996 10.0609C8.73589 10.3422 9.11013 10.5004 9.50046 10.5004L9.5004 10.5003ZM9.5004 8.4003C9.7384 8.4003 9.95339 8.5462 10.0442 8.77062C10.1356 8.99504 10.085 9.25284 9.9166 9.42453C9.74817 9.59622 9.49522 9.64778 9.27505 9.55461C9.05488 9.46203 8.91173 9.24289 8.91173 9.00031C8.91173 8.66868 9.17502 8.40031 9.50039 8.40031L9.5004 8.4003Z" fill="white"/>
<path d="M5 10.05L5.37941 10.7309L5.96807 11.7703L6.3538 12.45L7.06433 12.15L7.50582 11.9672C7.65241 12.0685 7.80591 12.1588 7.96514 12.2367L8.03298 12.7213L8.14622 13.5H10.8538L10.9624 12.7277L11.0303 12.2432C11.1901 12.1646 11.3436 12.0744 11.4896 11.973L11.9311 12.1559L12.6462 12.45L13.0319 11.7691L13.6206 10.7297L14 10.05L13.3981 9.56837L13.0216 9.26837C13.0285 9.1793 13.0319 9.09024 13.0319 9C13.0319 8.90976 13.0285 8.81953 13.0216 8.72871L13.3981 8.42871L14 7.95L13.6206 7.26913L13.0319 6.22968L12.6462 5.55L11.9357 5.85L11.4942 6.03282C11.3476 5.93145 11.1941 5.84123 11.0349 5.76329L10.967 5.27871L10.8538 4.5H8.14623L8.03758 5.27226L7.96975 5.75684C7.80994 5.83535 7.65645 5.92559 7.51043 6.02696L7.06894 5.84413L6.3538 5.55L5.96807 6.23087L5.37941 7.27032L5 7.95L5.60188 8.43164L5.97841 8.73164C5.97151 8.8207 5.96807 8.90976 5.96807 9C5.96807 9.09024 5.97151 9.18047 5.97841 9.27129L5.60188 9.57129L5 10.05ZM6.85104 9C6.85162 8.77968 6.87921 8.56054 6.9321 8.34726L6.14627 7.71855L6.73493 6.6791L7.66046 7.05702V7.05761C7.97089 6.75233 8.34973 6.52851 8.7642 6.40664L8.91137 5.4H10.0887L10.2359 6.40664C10.6526 6.52792 11.0338 6.75234 11.3453 7.05879L12.2709 6.68087L12.8595 7.72032L12.0737 8.34903C12.1824 8.77677 12.1824 9.22619 12.0737 9.65391L12.8595 10.2826L12.2709 11.3221L11.3453 10.9442C11.0332 11.2494 10.6521 11.4727 10.2359 11.5934L10.0887 12.6H8.91137L8.7642 11.5934C8.34743 11.4721 7.96629 11.2477 7.65471 10.9412L6.72917 11.3191L6.14051 10.2797L6.92634 9.65097C6.87518 9.43769 6.84989 9.21914 6.85104 9L6.85104 9Z" fill="white"/>
<defs>
<linearGradient id="paint0_linear_381_517" x1="-3.52501" y1="6.38957" x2="10.1108" y2="26.2637" gradientUnits="userSpaceOnUse">
<stop stop-color="#BCE411"/>
<stop offset="1" stop-color="#61AB01"/>
</linearGradient>
</defs>
</svg>
