<svg width="28" height="28" viewBox="0 0 28 28" fill="none" xmlns="http://www.w3.org/2000/svg">
<rect x="0.5" y="27.5" width="27" height="27" rx="13.5" transform="rotate(-90 0.5 27.5)" fill="#E6E5E6"/>
<rect x="0.5" y="27.5" width="27" height="27" rx="13.5" transform="rotate(-90 0.5 27.5)" stroke="#908E8E"/>
<path d="M11.9677 13.8708C11.9677 12.694 12.8766 11.7418 14 11.7418C15.1234 11.7418 16.0323 12.694 16.0323 13.8708C16.0323 15.0477 15.1234 15.9999 14 15.9999C12.8766 15.9999 11.9677 15.0477 11.9677 13.8708ZM9.03226 15.9999C10.1556 15.9999 11.0645 15.0477 11.0645 13.8708C11.0645 12.694 10.1556 11.7418 9.03226 11.7418C7.90887 11.7418 7 12.694 7 13.8708C7 15.0477 7.90887 15.9999 9.03226 15.9999ZM18.9677 15.9999C20.0911 15.9999 21 15.0477 21 13.8708C21 12.694 20.0911 11.7418 18.9677 11.7418C17.8444 11.7418 16.9355 12.694 16.9355 13.8708C16.9355 15.0477 17.8444 15.9999 18.9677 15.9999Z" fill="#908E8E"/>
</svg>
