<svg width="16" height="16" viewBox="0 0 16 16" fill="none" xmlns="http://www.w3.org/2000/svg">
<path d="M14.9154 7.15781C13.5973 4.67789 10.9879 3 8 3C5.01211 3 2.40193 4.67906 1.08457 7.15805C1.02897 7.2641 1 7.38128 1 7.50012C1 7.61896 1.02897 7.73613 1.08457 7.84219C2.40266 10.3221 5.01211 12 8 12C10.9879 12 13.5981 10.3209 14.9154 7.84195C14.971 7.7359 15 7.61872 15 7.49988C15 7.38104 14.971 7.26387 14.9154 7.15781ZM8 10.875C7.30776 10.875 6.63107 10.6771 6.0555 10.3062C5.47993 9.93536 5.03132 9.40826 4.76642 8.79156C4.50151 8.17486 4.4322 7.49626 4.56725 6.84157C4.70229 6.18688 5.03564 5.58552 5.52512 5.11351C6.01461 4.64151 6.63825 4.32007 7.31718 4.18985C7.99612 4.05962 8.69985 4.12646 9.33939 4.38191C9.97894 4.63735 10.5256 5.06993 10.9101 5.62495C11.2947 6.17997 11.5 6.83249 11.5 7.5C11.5002 7.94327 11.4099 8.38224 11.234 8.79181C11.0582 9.20138 10.8004 9.57353 10.4754 9.88697C10.1503 10.2004 9.7644 10.449 9.33966 10.6185C8.91492 10.7881 8.45969 10.8752 8 10.875ZM8 5.25C7.79173 5.25281 7.58481 5.28269 7.38483 5.33883C7.54967 5.55485 7.62878 5.82068 7.6078 6.08811C7.58681 6.35555 7.46714 6.60688 7.27047 6.79652C7.0738 6.98617 6.81316 7.10157 6.53582 7.1218C6.25848 7.14203 5.9828 7.06575 5.75878 6.9068C5.63122 7.35998 5.65424 7.84033 5.82462 8.28023C5.995 8.72014 6.30414 9.09745 6.70855 9.35905C7.11295 9.62066 7.59225 9.75339 8.07899 9.73856C8.56572 9.72374 9.03537 9.5621 9.42185 9.2764C9.80832 8.9907 10.0922 8.59533 10.2334 8.14593C10.3746 7.69654 10.3662 7.21574 10.2092 6.77123C10.0522 6.32671 9.75466 5.94085 9.35835 5.66796C8.96205 5.39507 8.48697 5.24889 8 5.25Z" fill="#908E8E"/>
</svg>
