<svg width="11" height="15" viewBox="0 0 11 15" fill="none" xmlns="http://www.w3.org/2000/svg">
<path d="M6.41667 4.21875V0.5H0.6875C0.30651 0.5 0 0.792578 0 1.15625V13.8438C0 14.2074 0.30651 14.5 0.6875 14.5H10.3125C10.6935 14.5 11 14.2074 11 13.8438V4.875H7.10417C6.72604 4.875 6.41667 4.57969 6.41667 4.21875ZM8.60664 9.99813L5.84461 12.6149C5.65411 12.7957 5.34646 12.7957 5.15596 12.6149L2.39393 9.99813C2.10318 9.72277 2.30714 9.25 2.7162 9.25H4.58333V7.0625C4.58333 6.82078 4.78844 6.625 5.04167 6.625H5.95833C6.21156 6.625 6.41667 6.82078 6.41667 7.0625V9.25H8.2838C8.69286 9.25 8.89682 9.72277 8.60664 9.99813ZM10.7995 3.37109L7.99505 0.691406C7.86615 0.568359 7.69141 0.5 7.50807 0.5H7.33333V4H11V3.8332C11 3.66094 10.9284 3.49414 10.7995 3.37109Z" fill="#464242"/>
</svg>
