<svg width="15" height="15" viewBox="0 0 15 15" fill="none" xmlns="http://www.w3.org/2000/svg">
<path d="M14.1144 4.38365L12.8538 5.64425C12.7253 5.77277 12.5175 5.77277 12.389 5.64425L9.35367 2.60897C9.22515 2.48045 9.22515 2.27263 9.35367 2.14411L10.6143 0.883511C11.1256 0.372163 11.9569 0.372163 12.471 0.883511L14.1144 2.52694C14.6285 3.03828 14.6285 3.86957 14.1144 4.38365ZM8.27081 3.22696L1.09 10.4077L0.51029 13.7301C0.43099 14.1786 0.822023 14.5669 1.27048 14.4903L4.5929 13.9079L11.7737 6.7271C11.9022 6.59858 11.9022 6.39076 11.7737 6.26224L8.73841 3.22696C8.60715 3.09844 8.39933 3.09844 8.27081 3.22696ZM3.89287 9.79246C3.74247 9.64206 3.74247 9.40143 3.89287 9.25103L8.104 5.03993C8.2544 4.88953 8.49504 4.88953 8.64543 5.03993C8.79583 5.19032 8.79583 5.43096 8.64543 5.58135L4.4343 9.79246C4.2839 9.94286 4.04327 9.94286 3.89287 9.79246ZM2.90571 12.0922H4.21827V13.0848L2.45452 13.3938L1.60409 12.5434L1.91309 10.7796H2.90571V12.0922Z" fill="url(#paint0_linear_381_4171)"/>
<defs>
<linearGradient id="paint0_linear_381_4171" x1="-4.07778" y1="5.17961" x2="8.04297" y2="22.8455" gradientUnits="userSpaceOnUse">
<stop stop-color="#BCE411"/>
<stop offset="1" stop-color="#61AB01"/>
</linearGradient>
</defs>
</svg>
