<svg width="14" height="10" viewBox="0 0 14 10" fill="none" xmlns="http://www.w3.org/2000/svg">
<path d="M2.1 4.28571C2.87219 4.28571 3.5 3.64509 3.5 2.85714C3.5 2.0692 2.87219 1.42857 2.1 1.42857C1.32781 1.42857 0.7 2.0692 0.7 2.85714C0.7 3.64509 1.32781 4.28571 2.1 4.28571ZM11.9 4.28571C12.6722 4.28571 13.3 3.64509 13.3 2.85714C13.3 2.0692 12.6722 1.42857 11.9 1.42857C11.1278 1.42857 10.5 2.0692 10.5 2.85714C10.5 3.64509 11.1278 4.28571 11.9 4.28571ZM12.6 5H11.2C10.815 5 10.4672 5.15848 10.2134 5.41518C11.095 5.90848 11.7206 6.79911 11.8562 7.85714H13.3C13.6872 7.85714 14 7.53795 14 7.14286V6.42857C14 5.64062 13.3722 5 12.6 5ZM7 5C8.35406 5 9.45 3.8817 9.45 2.5C9.45 1.1183 8.35406 0 7 0C5.64594 0 4.55 1.1183 4.55 2.5C4.55 3.8817 5.64594 5 7 5ZM8.68 5.71429H8.49844C8.04344 5.9375 7.53813 6.07143 7 6.07143C6.46187 6.07143 5.95875 5.9375 5.50156 5.71429H5.32C3.92875 5.71429 2.8 6.86607 2.8 8.28572V8.92857C2.8 9.52009 3.27031 10 3.85 10H10.15C10.7297 10 11.2 9.52009 11.2 8.92857V8.28572C11.2 6.86607 10.0712 5.71429 8.68 5.71429ZM3.78656 5.41518C3.53281 5.15848 3.185 5 2.8 5H1.4C0.627813 5 0 5.64062 0 6.42857V7.14286C0 7.53795 0.312812 7.85714 0.7 7.85714H2.14156C2.27938 6.79911 2.905 5.90848 3.78656 5.41518Z" fill="#77B724"/>
</svg>
