<svg width="26" height="24" viewBox="0 0 26 24" fill="none" xmlns="http://www.w3.org/2000/svg">
<path d="M19.1245 0.750019H6.87568C5.25186 0.752389 3.69472 1.4185 2.5461 2.60378C1.39748 3.78906 0.752293 5.39507 0.75 7.07115V22.2356C0.75 22.6907 0.98657 23.1103 1.37014 23.3343C1.75256 23.5595 2.22339 23.5548 2.60122 23.3224L6.41956 20.9792H19.1243C20.7481 20.9768 22.3053 20.3107 23.4539 19.1254C24.6025 17.9401 25.2477 16.3329 25.25 14.6568V7.07113C25.2477 5.39518 24.6023 3.78925 23.4539 2.60376C22.3055 1.41827 20.7483 0.752367 19.1243 0.75L19.1245 0.750019ZM13.0001 17.1861C12.5051 17.1861 12.0584 16.8779 11.8689 16.405C11.6783 15.9333 11.7839 15.3892 12.1342 15.0277C12.4844 14.6662 13.0115 14.5572 13.4686 14.7539C13.9268 14.9495 14.2254 15.4106 14.2254 15.9214C14.2254 16.2569 14.0956 16.5781 13.8659 16.8151C13.6363 17.0522 13.3251 17.1861 13.0001 17.1861L13.0001 17.1861ZM14.7399 11.6783C14.4 11.9011 14.2036 12.2958 14.2254 12.7106C14.2266 13.4123 13.6811 13.986 13.0001 13.9966C12.6774 14.0026 12.3662 13.8734 12.1365 13.6411C11.9056 13.4076 11.7759 13.0887 11.7747 12.7557C11.7368 11.3938 12.4316 10.122 13.58 9.45102C13.9682 9.23531 14.2139 8.82165 14.2242 8.36651C14.2346 7.91137 14.0072 7.48587 13.6294 7.25236C13.2504 7.01767 12.7796 7.01175 12.396 7.23695C12.0124 7.46096 11.7759 7.88055 11.7747 8.33569C11.7747 9.03382 11.2269 9.60038 10.5505 9.60038C9.87411 9.60038 9.32517 9.03382 9.32517 8.33569C9.32517 6.97026 10.0372 5.71034 11.1879 5.03713C12.3386 4.36388 13.7511 4.38048 14.8868 5.08217C16.0215 5.78266 16.7048 7.05918 16.6737 8.42473C16.6439 9.78897 15.9043 11.0323 14.7398 11.6784L14.7399 11.6783Z" fill="url(#paint0_linear_400_4645)"/>
<defs>
<linearGradient id="paint0_linear_400_4645" x1="-7.26112" y1="8.35437" x2="11.8718" y2="38.3856" gradientUnits="userSpaceOnUse">
<stop stop-color="#BCE411"/>
<stop offset="1" stop-color="#61AB01"/>
</linearGradient>
</defs>
</svg>
