<svg width="14" height="15" viewBox="0 0 14 15" fill="none" xmlns="http://www.w3.org/2000/svg">
<path d="M11.4352 0.000107213H0.318686C0.147697 0.000107213 0 0.132704 0 0.287613L0.000727432 12.6854C0.000727432 12.8416 0.147704 12.9611 0.319414 12.9611H7.92288C7.92288 12.9558 7.92433 12.9512 7.92433 12.9466C7.91342 12.5429 7.92797 12.1379 7.92797 11.7336V10.3091C7.92797 10.2697 7.92215 10.2317 7.92433 10.1923C7.93161 9.94414 8.0684 9.69471 8.32816 9.58836C8.52607 9.50631 8.71525 9.51615 8.92335 9.51615H11.7392V0.286851C11.7406 0.131279 11.606 0 11.435 0L11.4352 0.000107213ZM5.31589 4.4736C5.27587 4.48148 5.2373 4.49198 5.19801 4.50314C5.18928 4.50642 5.17982 4.50839 5.17037 4.51102C5.17182 4.51102 5.174 4.5097 5.174 4.50774C5.17255 4.50905 5.17037 4.50905 5.16818 4.51102C5.15945 4.5143 5.14781 4.51758 5.13908 4.52086C5.11143 4.52874 5.10415 4.54187 5.1318 4.53071C5.08451 4.55368 5.03576 4.57338 4.98992 4.59963C4.97391 4.60948 4.95936 4.62261 4.94262 4.63114C4.92662 4.64427 4.90988 4.65609 4.89533 4.66856C4.86622 4.6935 4.83857 4.71976 4.81384 4.74602C4.8102 4.7493 4.80801 4.75258 4.8051 4.75586C4.776 4.80969 4.7287 4.85958 4.69596 4.9134C4.69232 4.91472 4.68723 4.92128 4.68141 4.93441C4.67995 4.94097 4.67559 4.94885 4.67268 4.95542C4.67122 4.96067 4.66686 4.96526 4.66395 4.96986C4.6654 4.96657 4.66758 4.96329 4.67122 4.96198C4.66249 4.98299 4.65303 5.00662 4.64576 5.02762C4.63266 5.06701 4.62247 5.10639 4.6152 5.14578C4.6152 5.14906 4.61374 5.15234 4.61374 5.15562V5.14906C4.61956 5.0821 4.60792 5.18319 4.60647 5.18845C4.6101 5.1786 4.6101 5.16744 4.61229 5.15563C4.60647 5.22127 4.60501 5.28691 4.61083 5.35256C4.60938 5.3473 4.60719 5.34271 4.60501 5.33811C4.60865 5.35124 4.61083 5.36765 4.61374 5.38275C4.62102 5.41557 4.63412 5.44839 4.64285 5.4799C4.65012 5.50484 4.65376 5.52913 4.67195 5.55342C4.65885 5.54817 4.66468 5.54817 4.67195 5.56327C4.67195 5.56852 4.67195 5.57114 4.67341 5.57639C4.67341 5.57771 4.67195 5.57771 4.67195 5.57968C4.67195 5.58755 4.68068 5.59609 4.68287 5.60462C4.68141 5.60134 4.68141 5.59806 4.68141 5.59477C4.71197 5.64729 4.74544 5.69849 4.78182 5.74903C4.77818 5.74575 4.77309 5.74116 4.76727 5.73591C4.776 5.74378 4.78327 5.75429 4.79055 5.76216C4.79055 5.76347 4.79201 5.76347 4.79201 5.76544C4.79928 5.77332 4.80656 5.78185 4.8102 5.78382C4.82839 5.8022 4.84803 5.82124 4.86695 5.83962C4.89023 5.86062 4.91425 5.88032 4.93971 5.90001C4.93607 5.8987 4.93243 5.89673 4.93098 5.89476C4.9368 5.89607 4.94189 5.90132 4.94699 5.90461C4.95281 5.90986 4.9579 5.91445 4.96518 5.91773C4.97391 5.92561 4.98337 5.92955 4.98846 5.93086C5.04085 5.96237 5.0976 5.98863 5.15435 6.01423C5.16527 6.01751 5.17618 6.02079 5.1871 6.02407C5.22202 6.03589 5.25622 6.04377 5.2926 6.05164C5.32171 6.05821 5.35081 6.06346 5.37991 6.06805C5.38865 6.06937 5.3981 6.06674 5.40756 6.06805C5.47887 6.07331 5.54945 6.06805 5.62002 6.06805H6.19119C6.85332 6.06805 7.48999 6.37329 7.81012 6.90827C8.17758 7.524 8.06842 8.29005 7.53946 8.80011C7.30299 9.02855 6.97192 9.20183 6.6314 9.26485C6.53099 9.28323 6.42913 9.29439 6.32944 9.29898V10.1143C6.32944 10.3388 6.1257 10.5068 5.88415 10.516C5.64403 10.5258 5.43886 10.3243 5.43886 10.1143L5.43595 9.3049H4.15898C3.91015 9.3049 3.72388 9.12109 3.71369 8.90317C3.70278 8.68655 3.92615 8.50145 4.15898 8.50145H4.22301C4.89095 8.50145 5.55818 8.5067 6.2254 8.50276H6.29961C6.3229 8.50145 6.37383 8.49488 6.38547 8.49292C6.37965 8.49423 6.3651 8.49817 6.33454 8.50276C6.3651 8.49751 6.39857 8.49292 6.42913 8.48635C6.46915 8.47847 6.50771 8.46797 6.547 8.45681C6.55573 8.45353 6.56519 8.45156 6.57465 8.44894C6.57319 8.44894 6.57101 8.45025 6.56883 8.45222C6.57028 8.4509 6.57247 8.4509 6.57465 8.44894C6.58338 8.44565 6.59502 8.44237 6.60375 8.43909C6.62922 8.43121 6.63868 8.41808 6.61103 8.42924C6.65833 8.40627 6.70707 8.38657 6.75291 8.36032C6.76892 8.35047 6.78347 8.33734 6.80021 8.32881C6.81622 8.31568 6.83295 8.30387 6.84751 8.29139C6.87661 8.26645 6.90426 8.24019 6.929 8.21393C6.93264 8.21065 6.93627 8.20737 6.93773 8.20409C6.96683 8.15026 7.01413 8.10037 7.04687 8.04655C7.05051 8.04523 7.0556 8.0367 7.06142 8.02554C7.06288 8.02226 7.06506 8.02029 7.06506 8.01766C7.06652 8.01438 7.0687 8.01241 7.0687 8.00979V8.00651V8.00322V7.99994C7.0687 7.99994 7.0687 7.99863 7.07015 7.99666V7.99535L7.0687 7.99666C7.07743 7.97565 7.08471 7.95202 7.09198 7.93102C7.10508 7.89163 7.11527 7.85225 7.12254 7.81286C7.12254 7.80958 7.124 7.80761 7.124 7.80499C7.12982 7.73803 7.13127 7.67239 7.12545 7.60478C7.12691 7.61003 7.12909 7.61463 7.13127 7.61922C7.12764 7.60609 7.12545 7.58968 7.124 7.57458C7.11672 7.54176 7.10945 7.50894 7.09853 7.47743C7.09125 7.45249 7.08252 7.4282 7.07306 7.40391C7.07306 7.39866 7.06942 7.38947 7.06433 7.37897C7.06433 7.37766 7.06288 7.37766 7.06288 7.37569C7.05705 7.36387 7.05196 7.35271 7.04832 7.34287C7.04978 7.35074 7.05196 7.35731 7.0556 7.36256C7.02504 7.31005 6.99157 7.26081 6.95737 7.20961C6.96101 7.21289 6.96611 7.21749 6.97193 7.22274C6.96319 7.21486 6.95592 7.20633 6.94864 7.19648C6.94719 7.19517 6.94719 7.1932 6.945 7.19123C6.93773 7.18139 6.93045 7.17482 6.92681 7.17154C6.90862 7.15316 6.88898 7.13412 6.86861 7.11771C6.84532 7.09671 6.82131 7.07702 6.79585 7.05732C6.79948 7.05864 6.80312 7.06061 6.80676 7.06258C6.80094 7.06126 6.79803 7.05732 6.79221 7.0547H6.79075L6.7893 7.05339C6.79075 7.0547 6.79512 7.0547 6.79657 7.05667C6.79512 7.05535 6.79294 7.05535 6.79294 7.05339H6.79148L6.78566 7.04813C6.78202 7.04485 6.77838 7.04026 6.77474 7.03829C6.76747 7.03304 6.76165 7.02844 6.75656 7.02516C6.7551 7.02385 6.75292 7.02385 6.75073 7.02385C6.70126 6.99431 6.65251 6.97265 6.59939 6.94836C6.61977 6.95492 6.62486 6.95492 6.62122 6.95361C6.6285 6.95361 6.55574 6.92604 6.56156 6.93063C6.5601 6.93063 6.56519 6.93392 6.58193 6.94245C6.5732 6.93917 6.56374 6.93589 6.55428 6.93457C6.51936 6.92473 6.48516 6.91488 6.44878 6.907C6.41967 6.90044 6.39057 6.89519 6.36146 6.88862C6.36874 6.88994 6.37747 6.88994 6.38475 6.88994C6.38329 6.88994 6.36292 6.88665 6.34473 6.88468C6.34109 6.88468 6.33891 6.88337 6.336 6.88337H6.33018C6.3229 6.88337 6.31926 6.88206 6.31708 6.88206C6.31853 6.88206 6.32072 6.88206 6.3229 6.88337C6.25596 6.87812 6.18829 6.87812 6.12281 6.87812H5.55164C4.88951 6.87812 4.25285 6.57946 3.93271 6.04447C3.56526 5.42874 3.67441 4.66599 4.20337 4.15532C4.43984 3.92688 4.77091 3.75491 5.11143 3.69255C5.21912 3.67285 5.32607 3.66301 5.43304 3.65841V2.84313C5.43304 2.61864 5.63678 2.4506 5.87833 2.44141C6.11845 2.43156 6.32363 2.63308 6.32363 2.84313L6.32508 3.65972H7.58021C7.82905 3.65972 8.01532 3.84353 8.02551 4.06145C8.03642 4.27808 7.81305 4.46318 7.58021 4.46318H7.51618C6.84824 4.46318 6.18101 4.4553 5.5138 4.45989C5.48833 4.45989 5.46432 4.45858 5.43958 4.45858C5.39957 4.45989 5.28315 4.47959 5.41193 4.45727C5.38137 4.46383 5.34863 4.46711 5.31589 4.47368L5.31589 4.4736ZM8.63742 10.1582V12.5869L11.3281 10.1582H8.63742Z" fill="url(#paint0_linear_322_6032)"/>
<path d="M13.9994 2.47806V14.7125C13.9994 14.8687 13.8524 15 13.6793 15L2.747 14.9993C2.57383 14.9993 2.44141 14.8667 2.44141 14.7118V13.5513H8.50089L12.395 10.0382V2.20245H13.6814C13.8524 2.20245 13.9994 2.32192 13.9994 2.47815L13.9994 2.47806Z" fill="url(#paint1_linear_322_6032)"/>
<defs>
<linearGradient id="paint0_linear_322_6032" x1="-3.83853" y1="4.33235" x2="7.73917" y2="19.6159" gradientUnits="userSpaceOnUse">
<stop stop-color="#BCE411"/>
<stop offset="1" stop-color="#61AB01"/>
</linearGradient>
<linearGradient id="paint1_linear_322_6032" x1="-1.33788" y1="6.48014" x2="10.1025" y2="21.5394" gradientUnits="userSpaceOnUse">
<stop stop-color="#BCE411"/>
<stop offset="1" stop-color="#61AB01"/>
</linearGradient>
</defs>
</svg>
