<svg width="15" height="15" viewBox="0 0 15 15" fill="none" xmlns="http://www.w3.org/2000/svg">
<path d="M1.47184 13.5L2.93818 10.3883L2.91521 10.371C2.71942 10.2247 2.534 10.0865 2.35298 9.92868C1.44618 9.14021 0.882862 8.23828 0.631261 7.17288C0.589148 6.99434 0.563442 6.81694 0.538831 6.6459C0.527345 6.56815 0.516407 6.49443 0.504375 6.42129L0.5 6.39249V5.86896L0.504375 5.84247C0.51422 5.77911 0.52297 5.71634 0.531721 5.65357C0.551411 5.50786 0.572193 5.35696 0.603915 5.20548C0.819953 4.16304 1.35702 3.23922 2.19977 2.46059C3.34502 1.40317 4.74294 0.783462 6.47446 0.565693V0.565117C7.43431 0.444745 8.40676 0.491397 9.3524 0.703918C10.7295 1.01031 11.8551 1.58049 12.7925 2.44784C13.6522 3.24493 14.1773 4.14679 14.3983 5.2032C14.4284 5.34718 14.4486 5.48771 14.4683 5.62479C14.477 5.68699 14.4869 5.74977 14.4956 5.81196L14.5 5.84076V6.41669L14.4852 6.4668H14.4858C14.4798 6.48523 14.4754 6.50481 14.4721 6.52439C14.4092 7.29096 14.1554 8.02179 13.7174 8.70031C13.0818 9.68344 12.1744 10.4506 11.0199 10.9811H11.0194C9.92004 11.4879 8.73156 11.7488 7.5311 11.7459C6.82175 11.7436 6.11461 11.6595 5.42225 11.4959C5.40858 11.4942 5.3949 11.4959 5.38178 11.5017C4.68938 11.8605 3.98714 12.2297 3.30681 12.5856L2.47167 13.0233C2.4394 13.0401 2.40822 13.055 2.37213 13.0717L2.30485 13.1028L1.47184 13.5ZM1.15189 6.33412C1.16283 6.40438 1.17322 6.4735 1.18252 6.54145C1.20603 6.70502 1.22846 6.85821 1.26346 7.00623C1.48004 7.92485 1.97281 8.70754 2.7697 9.40036C2.93158 9.54204 3.10771 9.67336 3.29311 9.81158C3.37515 9.87263 3.46046 9.93598 3.54579 10.0022L3.76783 10.1727L2.88894 12.0375L3.01528 11.9713C3.69729 11.6136 4.40226 11.2433 5.09795 10.8833L5.10451 10.8799L5.10396 10.8805C5.24233 10.8119 5.39712 10.7918 5.54697 10.8229L5.55572 10.8252C7.39338 11.2525 9.14464 11.0936 10.7602 10.3518C11.8152 9.86738 12.6067 9.19988 13.1798 8.31413C13.5561 7.73186 13.7732 7.10581 13.8246 6.45388L13.8268 6.43084H13.8262C13.8323 6.39168 13.8394 6.35309 13.8487 6.31565V5.89636C13.8399 5.83992 13.8317 5.78406 13.8235 5.72819C13.8044 5.59573 13.7863 5.47132 13.7612 5.35038C13.5697 4.44097 13.1136 3.66057 12.3616 2.96362C11.5106 2.17689 10.4818 1.65681 9.21679 1.37525V1.37467C8.34117 1.17828 7.44032 1.13451 6.55111 1.24566C4.95469 1.44667 3.67219 2.01223 2.6291 2.97513C1.88256 3.66626 1.42807 4.44204 1.23992 5.35024C1.21258 5.4781 1.19507 5.60942 1.17593 5.75051C1.16828 5.80811 1.16007 5.8657 1.15187 5.9233V6.33453L1.15189 6.33412ZM10.1804 7.17845H10.1634C9.61487 7.17269 9.17406 6.70157 9.1757 6.12449C9.17789 5.54279 9.62089 5.06938 10.1634 5.06938V5.0688C10.4353 5.06708 10.6961 5.17996 10.8881 5.38269C11.0757 5.58139 11.1791 5.8515 11.1758 6.1314V6.14868V6.14811C11.1665 6.72001 10.7235 7.17845 10.1804 7.17845ZM10.1629 5.75474C9.97913 5.75474 9.82818 5.92176 9.82763 6.12679C9.82654 6.32722 9.97967 6.4902 10.17 6.49194H10.1738C10.2652 6.49424 10.3538 6.45796 10.4194 6.39058C10.4856 6.32377 10.5233 6.23219 10.525 6.13601V6.12909C10.5271 6.03119 10.491 5.93615 10.426 5.86588C10.356 5.79332 10.2619 5.75358 10.164 5.75473L10.1629 5.75474ZM7.50043 7.17845C7.23409 7.17903 6.97812 7.06729 6.78999 6.86859C6.60185 6.66989 6.49628 6.40035 6.49628 6.11987V6.11642C6.50285 5.54854 6.95351 5.06936 7.48073 5.06936H7.48292C8.05281 5.06936 8.50183 5.53011 8.50566 6.11987V6.1239V6.12332C8.50129 6.7056 8.05337 7.17615 7.50043 7.17845ZM7.14822 6.12218C7.14877 6.32663 7.30519 6.49135 7.49934 6.49193C7.69404 6.4925 7.85264 6.32663 7.85484 6.1216C7.85265 5.91542 7.69076 5.7553 7.48349 5.7553C7.30575 5.7553 7.15149 5.92636 7.14822 6.12218ZM4.82375 7.1652V7.16577C4.27191 7.1652 3.82453 6.69466 3.82398 6.11354V6.11066C3.82836 5.54682 4.273 5.06879 4.79531 5.06706H4.7964C5.0737 5.06303 5.34059 5.17706 5.53694 5.38382C5.72563 5.58655 5.82899 5.86128 5.82298 6.14522V6.15443C5.8033 6.71942 5.36193 7.16693 4.82485 7.16578L4.82375 7.1652ZM4.4759 6.11411V6.11469C4.477 6.31627 4.63232 6.47926 4.82375 6.47926C4.96267 6.48156 5.089 6.39517 5.1437 6.26098C5.19839 6.12621 5.1705 5.9707 5.07315 5.86588C4.99931 5.79101 4.89977 5.75069 4.79749 5.753C4.63178 5.75357 4.47865 5.92578 4.47645 6.11468L4.4759 6.11411Z" fill="url(#paint0_linear_381_509)" stroke="url(#paint1_linear_381_509)" stroke-width="0.5"/>
<defs>
<linearGradient id="paint0_linear_381_509" x1="-4.07778" y1="4.84536" x2="6.85534" y2="22.0061" gradientUnits="userSpaceOnUse">
<stop stop-color="#BCE411"/>
<stop offset="1" stop-color="#61AB01"/>
</linearGradient>
<linearGradient id="paint1_linear_381_509" x1="-4.07778" y1="4.84536" x2="6.85534" y2="22.0061" gradientUnits="userSpaceOnUse">
<stop stop-color="#BCE411"/>
<stop offset="1" stop-color="#61AB01"/>
</linearGradient>
</defs>
</svg>
