<svg width="14" height="5" viewBox="0 0 14 5" fill="none" xmlns="http://www.w3.org/2000/svg">
<path d="M4.96774 2.87085C4.96774 1.69396 5.87661 0.741814 7 0.741814C8.12339 0.741814 9.03226 1.69396 9.03226 2.87085C9.03226 4.04773 8.12339 4.99988 7 4.99988C5.87661 4.99988 4.96774 4.04773 4.96774 2.87085ZM2.03226 4.99988C3.15565 4.99988 4.06452 4.04773 4.06452 2.87085C4.06452 1.69396 3.15565 0.741814 2.03226 0.741814C0.908871 0.741814 0 1.69396 0 2.87085C0 4.04773 0.908871 4.99988 2.03226 4.99988ZM11.9677 4.99988C13.0911 4.99988 14 4.04773 14 2.87085C14 1.69396 13.0911 0.741814 11.9677 0.741814C10.8444 0.741814 9.93548 1.69396 9.93548 2.87085C9.93548 4.04773 10.8444 4.99988 11.9677 4.99988Z" fill="#464242"/>
</svg>
