<svg width="14" height="12" viewBox="0 0 14 12" fill="none" xmlns="http://www.w3.org/2000/svg">
<path d="M13.28 5.36007C12.9118 5.36007 12.6237 5.6482 12.6237 6.01633V10.5282H1.31251V6.00001C1.31251 5.63188 1.02438 5.34375 0.656256 5.34375C0.288128 5.34375 0 5.63188 0 6.00001V11.1837C0 11.5518 0.288128 11.8399 0.656256 11.8399H13.2799C13.6481 11.8399 13.9362 11.5518 13.9362 11.1837V6.00001C13.9362 5.64813 13.6481 5.36001 13.2799 5.36001L13.28 5.36007Z" fill="#77B724"/>
<path d="M7.40813 0.191875C7.39188 0.175626 7.37625 0.16 7.34438 0.14375C7.32813 0.14375 7.32813 0.127501 7.29625 0.111875C7.2 0.0318753 7.07251 0 6.94438 0C6.86438 0 6.76812 0.0162496 6.68812 0.0481248C6.60812 0.0800001 6.52813 0.128125 6.46438 0.17625L3.26438 3.40809C3.13626 3.53621 3.07251 3.71183 3.07251 3.88809C3.07251 4.06435 3.15251 4.20809 3.26438 4.31996C3.39251 4.44809 3.53625 4.51183 3.72813 4.51183C3.92 4.51183 4.08 4.44808 4.19187 4.31996L6.27187 2.22364V8.87996C6.27187 9.24809 6.56 9.53622 6.92812 9.53622C7.29625 9.53622 7.58438 9.24809 7.58438 8.87996V2.22364L9.71254 4.31996C9.84066 4.44809 9.98441 4.51183 10.1763 4.51183C10.3682 4.51183 10.5282 4.44808 10.64 4.31996C10.7682 4.19184 10.8319 4.01622 10.8319 3.83996C10.8319 3.66371 10.7519 3.51996 10.64 3.40809L7.40813 0.191875Z" fill="#77B724"/>
</svg>
