<svg width="14" height="9" viewBox="0 0 14 9" fill="none" xmlns="http://www.w3.org/2000/svg">
<path d="M13.051 4.26309C11.8977 2.09315 9.6144 0.625 7 0.625C4.3856 0.625 2.10169 2.09418 0.948999 4.26329C0.900348 4.35609 0.875 4.45862 0.875 4.5626C0.875 4.66659 0.900348 4.76911 0.948999 4.86191C2.10233 7.03185 4.3856 8.5 7 8.5C9.6144 8.5 11.8983 7.03082 13.051 4.86171C13.0997 4.76891 13.125 4.66638 13.125 4.5624C13.125 4.45841 13.0997 4.35589 13.051 4.26309ZM7 7.51562C6.39429 7.51562 5.80219 7.34243 5.29856 7.01793C4.79494 6.69344 4.40241 6.23222 4.17061 5.69261C3.93882 5.153 3.87817 4.55922 3.99634 3.98637C4.11451 3.41352 4.40618 2.88733 4.83448 2.47433C5.26278 2.06132 5.80847 1.78007 6.40253 1.66612C6.9966 1.55217 7.61237 1.61065 8.17197 1.83417C8.73157 2.05768 9.20987 2.43619 9.54638 2.92183C9.88289 3.40747 10.0625 3.97843 10.0625 4.5625C10.0627 4.95036 9.98362 5.33446 9.82979 5.69284C9.67595 6.05121 9.45037 6.37683 9.16595 6.6511C8.88154 6.92536 8.54385 7.14287 8.1722 7.29122C7.80055 7.43956 7.40223 7.51581 7 7.51562ZM7 2.59375C6.81777 2.59621 6.63671 2.62235 6.46172 2.67147C6.60596 2.86049 6.67518 3.09309 6.65682 3.3271C6.63846 3.5611 6.53374 3.78102 6.36166 3.94696C6.18957 4.1129 5.96151 4.21388 5.71884 4.23158C5.47617 4.24928 5.23495 4.18254 5.03893 4.04345C4.92731 4.43998 4.94746 4.86029 5.09654 5.24521C5.24562 5.63012 5.51613 5.96027 5.86998 6.18917C6.22383 6.41808 6.64322 6.53422 7.06911 6.52124C7.495 6.50827 7.90595 6.36684 8.24412 6.11685C8.58228 5.86687 8.83064 5.52091 8.95422 5.12769C9.07781 4.73447 9.07041 4.31378 8.93306 3.92482C8.79571 3.53587 8.53532 3.19825 8.18856 2.95947C7.84179 2.72069 7.4261 2.59278 7 2.59375Z" fill="#464242"/>
</svg>
