<svg width="19" height="20" viewBox="0 0 19 20" fill="none" xmlns="http://www.w3.org/2000/svg">
<path d="M16.6253 3.03296H9.50003C8.84427 3.03296 8.3121 2.46652 8.3121 1.76707C8.3121 1.431 8.18741 1.108 7.96473 0.870516C7.74205 0.63303 7.44036 0.5 7.12528 0.5H2.37472C1.06321 0.5 0 1.63407 0 3.03293V6.83294H16.6253C16.9537 6.83294 17.2187 7.11675 17.2187 7.46705C17.2187 7.81617 16.9537 8.09998 16.6253 8.09998H0V16.3329C0 17.733 1.06324 19.5 2.37472 19.5H16.6253C17.9379 19.5 19 17.733 19 16.3329V5.56705C19 4.89494 18.7506 4.25012 18.3042 3.77512C17.8588 3.30012 17.2554 3.03293 16.6253 3.03293L16.6253 3.03296Z" fill="white"/>
</svg>
