<svg width="18" height="18" viewBox="0 0 18 18" fill="none" xmlns="http://www.w3.org/2000/svg">
<path d="M15.7348 2.57145H13.8981V0.830375C13.8981 0.609392 13.6915 0.428589 13.4389 0.428589H11.9083C11.6558 0.428589 11.4491 0.609392 11.4491 0.830375V2.57145H6.55116V0.830375C6.55116 0.609392 6.34453 0.428589 6.09198 0.428589H4.56136C4.30881 0.428589 4.10218 0.609392 4.10218 0.830375V2.57145H2.26545C1.25142 2.57145 0.428711 3.29131 0.428711 4.17859V15.9643C0.428711 16.8516 1.25142 17.5714 2.26545 17.5714H15.7348C16.7489 17.5714 17.5716 16.8516 17.5716 15.9643V4.17859C17.5716 3.29131 16.7489 2.57145 15.7348 2.57145ZM15.5052 15.9643H2.49504C2.36876 15.9643 2.26545 15.8739 2.26545 15.7634V5.78573H15.7348V15.7634C15.7348 15.8739 15.6315 15.9643 15.5052 15.9643Z" fill="white"/>
</svg>
