<svg width="22" height="17" viewBox="0 0 22 17" fill="none" xmlns="http://www.w3.org/2000/svg">
<path d="M3.3 7.23469C4.51344 7.23469 5.5 6.228 5.5 4.9898C5.5 3.75159 4.51344 2.7449 3.3 2.7449C2.08656 2.7449 1.1 3.75159 1.1 4.9898C1.1 6.228 2.08656 7.23469 3.3 7.23469ZM18.7 7.23469C19.9134 7.23469 20.9 6.228 20.9 4.9898C20.9 3.75159 19.9134 2.7449 18.7 2.7449C17.4866 2.7449 16.5 3.75159 16.5 4.9898C16.5 6.228 17.4866 7.23469 18.7 7.23469ZM19.8 8.35714H17.6C16.995 8.35714 16.4484 8.60619 16.0497 9.00957C17.435 9.78476 18.4181 11.1843 18.6313 12.8469H20.9C21.5084 12.8469 22 12.3453 22 11.7245V10.602C22 9.36384 21.0134 8.35714 19.8 8.35714ZM11 8.35714C13.1278 8.35714 14.85 6.59981 14.85 4.42857C14.85 2.25733 13.1278 0.5 11 0.5C8.87219 0.5 7.15 2.25733 7.15 4.42857C7.15 6.59981 8.87219 8.35714 11 8.35714ZM13.64 9.47959H13.3547C12.6397 9.83036 11.8456 10.0408 11 10.0408C10.1544 10.0408 9.36375 9.83036 8.64531 9.47959H8.36C6.17375 9.47959 4.4 11.2895 4.4 13.5204V14.5306C4.4 15.4601 5.13906 16.2143 6.05 16.2143H15.95C16.8609 16.2143 17.6 15.4601 17.6 14.5306V13.5204C17.6 11.2895 15.8263 9.47959 13.64 9.47959ZM5.95031 9.00957C5.55156 8.60619 5.005 8.35714 4.4 8.35714H2.2C0.986563 8.35714 0 9.36384 0 10.602V11.7245C0 12.3453 0.491562 12.8469 1.1 12.8469H3.36531C3.58188 11.1843 4.565 9.78476 5.95031 9.00957Z" fill="white"/>
</svg>
