<svg width="18" height="19" viewBox="0 0 18 19" fill="none" xmlns="http://www.w3.org/2000/svg">
<path d="M14.1033 0.500132H0.393045C0.18216 0.500132 0 0.663668 0 0.854722L0.000897164 16.1453C0.000897164 16.338 0.182168 16.4853 0.393943 16.4853H9.77153C9.77153 16.4788 9.77332 16.4731 9.77332 16.4675C9.75986 15.9696 9.77781 15.4701 9.77781 14.9714V13.2146C9.77781 13.166 9.77063 13.119 9.77332 13.0704C9.7823 12.7644 9.95101 12.4568 10.2714 12.3256C10.5155 12.2244 10.7488 12.2366 11.0054 12.2366H14.4783V0.853782C14.4801 0.661911 14.314 0.5 14.1032 0.5L14.1033 0.500132ZM6.55625 6.01743C6.50689 6.02714 6.45933 6.0401 6.41087 6.05386C6.4001 6.05791 6.38844 6.06034 6.37677 6.06358C6.37857 6.06358 6.38126 6.06196 6.38126 6.05953C6.37946 6.06115 6.37677 6.06115 6.37408 6.06358C6.36331 6.06762 6.34895 6.07167 6.33818 6.07572C6.30408 6.08544 6.29511 6.10163 6.32921 6.08786C6.27088 6.1162 6.21076 6.14049 6.15422 6.17287C6.13448 6.18501 6.11653 6.20121 6.09589 6.21173C6.07615 6.22792 6.05551 6.2425 6.03756 6.25788C6.00166 6.28864 5.96756 6.32103 5.93705 6.35341C5.93256 6.35746 5.92987 6.36151 5.92628 6.36555C5.89039 6.43194 5.83206 6.49347 5.79167 6.55985C5.78719 6.56147 5.7809 6.56957 5.77373 6.58576C5.77193 6.59386 5.76655 6.60357 5.76296 6.61167C5.76116 6.61814 5.75578 6.62381 5.75219 6.62948C5.75398 6.62543 5.75668 6.62138 5.76116 6.61976C5.75039 6.64567 5.73873 6.67481 5.72975 6.70072C5.7136 6.7493 5.70104 6.79787 5.69206 6.84645C5.69206 6.85049 5.69027 6.85454 5.69027 6.85859V6.85049C5.69745 6.76792 5.68309 6.89259 5.6813 6.89907C5.68578 6.88693 5.68578 6.87316 5.68848 6.85859C5.6813 6.93955 5.6795 7.02051 5.68668 7.10147C5.68489 7.095 5.68219 7.08933 5.6795 7.08366C5.68399 7.09985 5.68668 7.12009 5.69027 7.13871C5.69924 7.17919 5.7154 7.21967 5.72617 7.25853C5.73514 7.28929 5.73963 7.31925 5.76206 7.3492C5.74591 7.34273 5.75309 7.34273 5.76206 7.36135C5.76206 7.36782 5.76206 7.37106 5.76385 7.37754C5.76385 7.37916 5.76206 7.37916 5.76206 7.38159C5.76206 7.3913 5.77283 7.40183 5.77552 7.41235C5.77373 7.4083 5.77373 7.40426 5.77373 7.40021C5.81142 7.46497 5.8527 7.52812 5.89756 7.59046C5.89308 7.58641 5.8868 7.58075 5.87962 7.57427C5.89039 7.58398 5.89936 7.59694 5.90833 7.60665C5.90833 7.60827 5.91013 7.60827 5.91013 7.6107C5.9191 7.62041 5.92808 7.63094 5.93256 7.63337C5.955 7.65604 5.97923 7.67951 6.00256 7.70218C6.03128 7.72809 6.06089 7.75238 6.0923 7.77666C6.08781 7.77505 6.08332 7.77262 6.08153 7.77019C6.08871 7.77181 6.09499 7.77828 6.10127 7.78233C6.10845 7.78881 6.11473 7.79448 6.1237 7.79852C6.13447 7.80824 6.14614 7.8131 6.15242 7.81472C6.21703 7.85358 6.28703 7.88596 6.35702 7.91753C6.37048 7.92158 6.38395 7.92563 6.39741 7.92968C6.44048 7.94425 6.48266 7.95396 6.52753 7.96368C6.56342 7.97177 6.59932 7.97825 6.63521 7.98392C6.64598 7.98554 6.65765 7.9823 6.66931 7.98392C6.75726 7.99039 6.8443 7.98392 6.93134 7.98392H7.63579C8.45241 7.98392 9.23763 8.36037 9.63247 9.02019C10.0857 9.77958 9.95103 10.7244 9.29864 11.3534C9.007 11.6352 8.59868 11.8489 8.17871 11.9266C8.05487 11.9493 7.92925 11.9631 7.80629 11.9687V12.9742C7.80629 13.2511 7.55502 13.4584 7.2571 13.4697C6.96096 13.4818 6.70791 13.2333 6.70791 12.9742L6.70432 11.976H5.1294C4.82251 11.976 4.59278 11.7493 4.58021 11.4806C4.56675 11.2134 4.84224 10.9851 5.1294 10.9851H5.20837C6.03216 10.9851 6.85508 10.9916 7.67797 10.9867H7.76951C7.79822 10.9851 7.86104 10.977 7.8754 10.9746C7.86822 10.9762 7.85027 10.9811 7.81258 10.9867C7.85027 10.9802 7.89155 10.9746 7.92924 10.9665C7.9786 10.9568 8.02616 10.9438 8.07462 10.93C8.08538 10.926 8.09705 10.9236 8.10872 10.9203C8.10692 10.9203 8.10423 10.922 8.10154 10.9244C8.10333 10.9228 8.10603 10.9228 8.10872 10.9203C8.11949 10.9163 8.13385 10.9122 8.14461 10.9082C8.17602 10.8985 8.18769 10.8823 8.15359 10.896C8.21192 10.8677 8.27204 10.8434 8.32858 10.811C8.34832 10.7989 8.36627 10.7827 8.38691 10.7722C8.40665 10.756 8.42729 10.7414 8.44524 10.726C8.48113 10.6953 8.51523 10.6629 8.54574 10.6305C8.55023 10.6265 8.55472 10.6224 8.55651 10.6184C8.59241 10.552 8.65074 10.4904 8.69112 10.4241C8.69561 10.4224 8.70189 10.4119 8.70907 10.3981C8.71086 10.3941 8.71356 10.3917 8.71356 10.3884C8.71535 10.3844 8.71804 10.382 8.71804 10.3787V10.3747V10.3706V10.3666C8.71804 10.3666 8.71804 10.365 8.71984 10.3625V10.3609L8.71804 10.3625C8.72881 10.3366 8.73779 10.3075 8.74676 10.2816C8.76291 10.233 8.77548 10.1844 8.78445 10.1358C8.78445 10.1318 8.78624 10.1294 8.78624 10.1261C8.79342 10.0436 8.79522 9.96259 8.78804 9.87921C8.78983 9.88568 8.79253 9.89135 8.79522 9.89702C8.79073 9.88083 8.78804 9.86059 8.78624 9.84197C8.77727 9.80149 8.7683 9.76101 8.75484 9.72215C8.74586 9.69138 8.73509 9.66143 8.72342 9.63148C8.72342 9.625 8.71894 9.61366 8.71266 9.60071C8.71266 9.59909 8.71086 9.59909 8.71086 9.59666C8.70368 9.58209 8.6974 9.56833 8.69291 9.55618C8.69471 9.5659 8.6974 9.57399 8.70189 9.58047C8.6642 9.51571 8.62292 9.45499 8.58074 9.39184C8.58523 9.39589 8.59151 9.40155 8.59869 9.40803C8.58792 9.39831 8.57895 9.38779 8.56997 9.37565C8.56818 9.37403 8.56818 9.3716 8.56549 9.36917C8.55651 9.35703 8.54754 9.34893 8.54305 9.34488C8.52062 9.32221 8.49639 9.29873 8.47126 9.2785C8.44255 9.25259 8.41293 9.2283 8.38153 9.20401C8.38601 9.20563 8.3905 9.20806 8.39499 9.21049C8.38781 9.20887 8.38422 9.20401 8.37704 9.20078H8.37524L8.37345 9.19916C8.37524 9.20078 8.38063 9.20078 8.38242 9.20321C8.38063 9.20159 8.37794 9.20159 8.37794 9.19916H8.37614L8.36896 9.19268C8.36448 9.18863 8.35999 9.18297 8.3555 9.18054C8.34653 9.17406 8.33935 9.16839 8.33307 9.16435C8.33127 9.16273 8.32858 9.16273 8.32589 9.16273C8.26487 9.1263 8.20474 9.09958 8.13923 9.06962C8.16436 9.07772 8.17064 9.07772 8.16615 9.0761C8.17513 9.0761 8.08539 9.0421 8.09257 9.04776C8.09077 9.04776 8.09706 9.05181 8.1177 9.06234C8.10693 9.05829 8.09526 9.05424 8.0836 9.05262C8.04052 9.04048 7.99834 9.02833 7.95347 9.01862C7.91758 9.01052 7.88168 9.00405 7.84579 8.99595C7.85476 8.99757 7.86553 8.99757 7.8745 8.99757C7.87271 8.99757 7.84758 8.99352 7.82515 8.99109C7.82066 8.99109 7.81797 8.98947 7.81438 8.98947H7.8072C7.79823 8.98947 7.79374 8.98785 7.79105 8.98785C7.79284 8.98785 7.79553 8.98785 7.79823 8.98947C7.71567 8.983 7.63221 8.983 7.55145 8.983H6.84701C6.03038 8.983 5.24517 8.61465 4.85033 7.95483C4.39714 7.19544 4.53176 6.25471 5.18415 5.62489C5.47579 5.34315 5.88412 5.13104 6.30408 5.05413C6.4369 5.02984 6.5688 5.0177 6.70074 5.01203V4.00652C6.70074 3.72965 6.95202 3.5224 7.24993 3.51106C7.54607 3.49892 7.79912 3.74746 7.79912 4.00652L7.80092 5.01365H9.34891C9.6558 5.01365 9.88554 5.24035 9.8981 5.50911C9.91156 5.77628 9.63607 6.00457 9.34891 6.00457H9.26994C8.44615 6.00457 7.62323 5.99486 6.80034 6.00052C6.76893 6.00052 6.73932 5.99891 6.70881 5.99891C6.65945 6.00052 6.51587 6.02481 6.6747 5.99729C6.63701 6.00538 6.59663 6.00943 6.55625 6.01753L6.55625 6.01743ZM10.6528 13.0284V16.0238L13.9712 13.0284H10.6528Z" fill="white"/>
<path d="M17.2695 3.55635V18.6454C17.2695 18.8381 17.0882 19 16.8746 19L3.39154 18.9992C3.17797 18.9992 3.01465 18.8357 3.01465 18.6446V17.2133H10.488L15.2907 12.8805V3.21643H16.8773C17.0882 3.21643 17.2694 3.36378 17.2694 3.55645L17.2695 3.55635Z" fill="white"/>
</svg>
